<?xml version="1.0" encoding="iso-8859-1"?>
<!-- Generator: Adobe Illustrator 19.0.0, SVG Export Plug-In . SVG Version: 6.00 Build 0)  -->
<svg version="1.1" id="Capa_1" xmlns="http://www.w3.org/2000/svg" xmlns:xlink="http://www.w3.org/1999/xlink" x="0px" y="0px"
	 viewBox="0 0 507.36 507.36" style="enable-background:new 0 0 507.36 507.36;" xml:space="preserve">
<g>
	<g>
		<g>
			<rect x="475.336" y="192" width="32" height="32"/>
			<rect x="475.336" y="128" width="32" height="32"/>
			<path d="M91.336,0v65.856L30.168,4.688L7.544,27.312l88.096,88.096l-95.616,95.6L22.648,233.6l95.616-95.568l67.888,67.888
				L61.688,330.368l-39.04-39.04L0.024,313.952l61.664,61.68l22.64-22.624L98.6,367.28l22.624,67.92l72.192,72.16l144.16-54.048
				c15.295-5.708,26.623-18.822,30.048-34.784c0.176-0.848,0-1.68,0.224-2.528h139.488V256h-32v128H362.072
				c-2.061-3.5-4.555-6.725-7.424-9.6l-23.536-23.504l3.408-0.768c43.354-9.799,70.557-52.888,60.758-96.242
				c-0.134-0.593-0.275-1.184-0.422-1.774l-3.6-14.4L276.936,257.6l-48.88-9.776l-19.2-19.2L231.48,206L123.336,97.856V32h80
				v119.632l56-22.4l40,16l40-16l56,22.4V32h80v64h32V0H91.336z M212.2,277.216l64.24,12.8l88.752-15.392
				c-1.375,21.475-16.725,39.482-37.712,44.24L267.432,332.4l64.592,64.576c6.252,6.245,6.258,16.375,0.013,22.627
				c-1.618,1.62-3.565,2.874-5.709,3.677l-124.8,46.832l-52.336-52.224L126.536,350l-19.584-19.632l79.184-79.168L212.2,277.216z
				 M363.336,104.368l-24-9.6l-40,16l-40-16l-24,9.6V32h128V104.368z"/>
		</g>
	</g>
</g>
<g>
</g>
<g>
</g>
<g>
</g>
<g>
</g>
<g>
</g>
<g>
</g>
<g>
</g>
<g>
</g>
<g>
</g>
<g>
</g>
<g>
</g>
<g>
</g>
<g>
</g>
<g>
</g>
<g>
</g>
</svg>
