<svg id="Слой_1" data-name="Слой 1" xmlns="http://www.w3.org/2000/svg" xmlns:xlink="http://www.w3.org/1999/xlink" viewBox="0 0 816 862.91895"><defs><style>.cls-1{fill:#fff;}.cls-2{font-size:171.16541px;fill:#c9c9c9;font-family:Rubik-Regular, Rubik;}.cls-3{fill:url(#Безымянный_градиент_30);}</style><linearGradient id="Безымянный_градиент_30" x1="244.27869" y1="501" x2="751.72131" y2="501" gradientUnits="userSpaceOnUse"><stop offset="0" stop-color="#e09340"/><stop offset="1" stop-color="#d5621d"/></linearGradient></defs><title>подарок</title><circle class="cls-1" cx="408" cy="408" r="408"/><text class="cls-2" transform="translate(367.70801 816.53418)">*</text><path class="cls-3" d="M706.13076,325.10267H591.10583c15.08056-22.84814,12.99528-54.58995-6.28753-74.95792-21.63964-22.85967-56.85041-22.85967-78.49008,0A46.853,46.853,0,0,0,498.001,262.711a46.876,46.876,0,0,0-8.32722-12.56627c-21.63966-22.85967-56.85042-22.85967-78.49009,0-19.28183,20.368-21.3671,52.10873-6.28752,74.95792H289.86924c-25.13824,0-45.59055,21.6044-45.59055,48.15868v37.68939c0,21.44526,13.34118,39.65448,31.71516,45.87009v264.0205C275.99385,747.39562,296.44617,769,321.5844,769H674.4156c25.13824,0,45.59055-21.60438,45.59055-48.15867V456.82083c18.374-6.21666,31.71516-24.42587,31.71516-45.87009V373.26135C751.72131,346.70707,731.269,325.10267,706.13076,325.10267ZM513.85758,425.60773H482.14242V358.60436h31.71516Zm3.73051-114.68464c4.898-29.75892,10.53835-36.4268,11.16571-37.08951a22.92627,22.92627,0,0,1,33.63989,0,26.1699,26.1699,0,0,1,0,35.53377c-.6234.65852-6.898,6.58309-34.857,11.74758-4.06944.7517-8.04079,1.3809-11.70487,1.90122C516.31352,319.23465,516.8943,315.13593,517.58809,310.92309Zm-83.98077-37.08951a22.92626,22.92626,0,0,1,33.63988,0c.6234.65852,6.232,7.28662,11.12111,36.8194.71162,4.29868,1.30726,8.49477,1.79983,12.36526-3.57984-.50986-7.461-1.12336-11.44817-1.85621-28.172-5.17392-34.4843-11.132-35.11166-11.79469a26.16887,26.16887,0,0,1-.001-35.53377ZM275.99385,373.26135c0-8.08229,6.2241-14.657,13.87539-14.657h160.558v67.00337h-160.558c-7.65129,0-13.87539-6.57471-13.87539-14.657Zm31.71517,347.58V459.10941H450.42725V735.49832H321.5844C313.93312,735.49832,307.709,728.92361,307.709,720.84133Zm174.4334,14.657V459.10941h31.71516V735.49832Zm206.14856-14.657c0,8.08228-6.2241,14.657-13.87538,14.657H545.57275V459.10941H688.291Zm31.71517-309.89059c0,8.08228-6.2241,14.657-13.87539,14.657h-160.558V358.60436h160.558c7.65129,0,13.87539,6.5747,13.87539,14.657Z" transform="translate(-92 -92)"/></svg>