<svg id="Layer_1" data-name="Layer 1" xmlns="http://www.w3.org/2000/svg" xmlns:xlink="http://www.w3.org/1999/xlink" viewBox="0 0 511.99852 512"><defs><style>.cls-1{fill:url(#Безымянный_градиент_19);}.cls-2{fill:url(#Безымянный_градиент_19-2);}.cls-3{fill:url(#Безымянный_градиент_19-3);}.cls-4{fill:url(#Безымянный_градиент_19-4);}</style><linearGradient id="Безымянный_градиент_19" x1="0.00044" y1="256" x2="511.99799" y2="256" gradientUnits="userSpaceOnUse"><stop offset="0" stop-color="#e09340"/><stop offset="1" stop-color="#d5621d"/></linearGradient><linearGradient id="Безымянный_градиент_19-2" x1="240.01015" y1="135.99442" x2="511.99896" y2="135.99442" xlink:href="#Безымянный_градиент_19"/><linearGradient id="Безымянный_градиент_19-3" x1="240.01015" y1="167.99311" x2="448.00162" y2="167.99311" xlink:href="#Безымянный_градиент_19"/><linearGradient id="Безымянный_градиент_19-4" x1="240.01015" y1="199.9918" x2="384.00424" y2="199.9918" xlink:href="#Безымянный_градиент_19"/></defs><title>phone_13</title><path class="cls-1" d="M367.97292,512a142.64635,142.64635,0,0,1-48.939-8.74363A521.85842,521.85842,0,0,1,129.53369,382.46631a521.82467,521.82467,0,0,1-120.79-189.50022,141.61625,141.61625,0,0,1-7.2257-69.60915A145.22217,145.22217,0,0,1,76.15488,17.0523,142.569,142.569,0,0,1,144.41708,0a16.00086,16.00086,0,0,1,15.64436,12.64648l25.113,117.19419a16.00338,16.00338,0,0,1-4.33081,14.6664l-42.91124,42.91025A421.148,421.148,0,0,0,324.58071,374.06565l42.91023-42.91123a16.00772,16.00772,0,0,1,14.66639-4.33082l117.1942,25.113A15.9998,15.9998,0,0,1,511.998,367.58093a142.56224,142.56224,0,0,1-17.05332,68.2632A145.22215,145.22215,0,0,1,388.64,510.48105,142.31728,142.31728,0,0,1,367.97289,512ZM131.63361,32.69864a112.11011,112.11011,0,0,0-92.8142,149.34288A485.28365,485.28365,0,0,0,329.95848,473.18058a112.11011,112.11011,0,0,0,149.34288-92.81419l-95.3371-20.42916-44.81417,44.81418a15.9972,15.9972,0,0,1-18.11626,3.16787A453.0353,453.0353,0,0,1,104.08072,190.96617a15.99831,15.99831,0,0,1,3.16787-18.11626l44.81417-44.81418Z" transform="translate(-0.00044)"/><path class="cls-2" d="M495.99965,271.98885A16.00006,16.00006,0,0,1,480.0003,255.9895c0-123.50894-100.48187-223.99081-223.99081-223.99081a15.99935,15.99935,0,0,1,0-31.99869A255.9872,255.9872,0,0,1,511.999,255.9895a15.99941,15.99941,0,0,1-15.99934,15.99935Z" transform="translate(-0.00044)"/><path class="cls-3" d="M432.00227,271.98885a16.00006,16.00006,0,0,1-15.99934-15.99935c0-88.22038-71.77306-159.99344-159.99344-159.99344a15.99934,15.99934,0,0,1,0-31.99868c105.86465,0,191.99213,86.12746,191.99213,191.99212A15.99942,15.99942,0,0,1,432.00227,271.98885Z" transform="translate(-0.00044)"/><path class="cls-4" d="M368.0049,271.98885a16.00006,16.00006,0,0,1-15.99935-15.99935,96.10424,96.10424,0,0,0-95.99606-95.99606,15.99935,15.99935,0,0,1,0-31.99869A128.139,128.139,0,0,1,384.00424,255.9895,15.99941,15.99941,0,0,1,368.0049,271.98885Z" transform="translate(-0.00044)"/></svg>