<svg id="Capa_1" data-name="Capa 1" xmlns="http://www.w3.org/2000/svg" xmlns:xlink="http://www.w3.org/1999/xlink" viewBox="0 0 360 512"><defs><style>.cls-1{fill:url(#Безымянный_градиент_11);}.cls-2{fill:url(#Безымянный_градиент_11-2);}</style><linearGradient id="Безымянный_градиент_11" x1="76" y1="256" x2="436" y2="256" gradientUnits="userSpaceOnUse"><stop offset="0" stop-color="#e09340"/><stop offset="1" stop-color="#d5621d"/></linearGradient><linearGradient id="Безымянный_градиент_11-2" x1="166" y1="180" x2="346" y2="180" xlink:href="#Безымянный_градиент_11"/></defs><title>pin_5</title><path class="cls-1" d="M256,0C156.748,0,76,80.748,76,180a179.618,179.618,0,0,0,26.869,94.652L245.754,504.909A14.99993,14.99993,0,0,0,258.499,512h.119a14.997,14.997,0,0,0,12.75-7.292L410.611,272.22A179.78558,179.78558,0,0,0,436,180C436,80.748,355.252,0,256,0ZM384.866,256.818,258.272,468.186,128.367,258.846A149.81541,149.81541,0,0,1,105.8,180c0-82.71,67.49-150.2,150.2-150.2S406.1,97.29,406.1,180A149.86769,149.86769,0,0,1,384.866,256.818Z" transform="translate(-76)"/><path class="cls-2" d="M256,90a90,90,0,1,0,90,90A90.10213,90.10213,0,0,0,256,90Zm0,150.2A60.20008,60.20008,0,1,1,316.1,180,60.24556,60.24556,0,0,1,256,240.2Z" transform="translate(-76)"/></svg>