<svg id="Слой_1" data-name="Слой 1" xmlns="http://www.w3.org/2000/svg" xmlns:xlink="http://www.w3.org/1999/xlink" viewBox="0 0 816 816"><defs><style>.cls-1{fill:#fff;}.cls-2{fill:url(#Безымянный_градиент_30);}</style><linearGradient id="Безымянный_градиент_30" x1="237.33116" y1="501.2936" x2="763.02179" y2="501.2936" gradientUnits="userSpaceOnUse"><stop offset="0" stop-color="#e09340"/><stop offset="1" stop-color="#d5621d"/></linearGradient></defs><title>VR</title><circle class="cls-1" cx="408" cy="408" r="408"/><path class="cls-2" d="M696.80611,276.35109a225.33882,225.33882,0,0,0-256.02952-44.718A228.02218,228.02218,0,0,0,328.68111,347.20358h-74.282a17.06834,17.06834,0,0,0-17.06795,17.06795v168.802a17.06834,17.06834,0,0,0,17.06795,17.06795H284.8802l-15.1791,29.07014c-7.96049,15.236-8.278,30.98629-.87274,43.21378,7.38473,12.19105,21.418,19.18325,38.503,19.18325h2.971v26.22774A61.1063,61.1063,0,0,0,371.25427,728.959a16.99889,16.99889,0,0,0,2.52036-.18776l40.67862-6.07164.074,41.11216q0,.3704.01594.74075a28.92549,28.92549,0,0,0,29.3091,28.03465,31.457,31.457,0,0,0,5.61878-.50751l216.97689-38.55082c16.2373-2.90153,28.9552-18.08177,28.9552-34.558V598.27194a227.05045,227.05045,0,0,0,1.403-321.9209ZM455.26842,262.54084l.107-.05006a189.191,189.191,0,0,1,81.7919-18.35488c89.254,0,164.50322,61.654,185.73572,144.78743H541.17939a59.41992,59.41992,0,0,0-42.58,17.94752A59.49386,59.49386,0,0,0,430.5085,394.6684V394.376a47.22457,47.22457,0,0,0-47.17127-47.17127H366.50367a193.68644,193.68644,0,0,1,88.76474-84.66387Zm26.263,186.13171a25.51167,25.51167,0,1,1-25.512-25.6133A25.59179,25.59179,0,0,1,481.53144,448.67255ZM271.467,516.00561v-134.665H383.33723A13.05065,13.05065,0,0,1,396.37258,394.376V502.97025a13.05065,13.05065,0,0,1-13.03535,13.03536Zm395.296,62.41637a17.06794,17.06794,0,0,0-5.49361,12.54379v127.8583a2.507,2.507,0,0,1-.9558,1.12422L448.65286,757.55466l-.10013-54.68571a17.068,17.068,0,0,0-19.58832-16.84946l-58.823,8.7809a26.94386,26.94386,0,0,1-25.7032-26.96394V624.54076a17.06834,17.06834,0,0,0-17.06795-17.06795H307.33249c-5.25579,0-8.50894-1.41664-9.30545-2.732-.81471-1.34382-.55755-4.95881,1.93209-9.72306l23.43089-44.875h59.94834a47.22457,47.22457,0,0,0,47.17127-47.17126V502.679a59.49385,59.49385,0,0,0,68.09089-12.20243,59.41985,59.41985,0,0,0,42.58,17.94751H714.9607A193.18588,193.18588,0,0,1,666.76308,578.422ZM725.1389,474.287H541.17939a25.6135,25.6135,0,0,1,0-51.2266H728.40911q.46936,6.68553.479,13.49051a192.17816,192.17816,0,0,1-3.74928,37.73611Z" transform="translate(-92 -92)"/></svg>