<svg id="Слой_1" data-name="Слой 1" xmlns="http://www.w3.org/2000/svg" xmlns:xlink="http://www.w3.org/1999/xlink" viewBox="0 0 816 844"><defs><style>.cls-1{fill:#fff;}.cls-2{fill:url(#Безымянный_градиент_19);}.cls-3{font-size:171.16541px;fill:#c9c9c9;}.cls-3,.cls-4{font-family:Rubik-Regular, Rubik;}.cls-4{font-size:162.71634px;fill:#d6641f;}.cls-5{letter-spacing:-0.03699em;}.cls-6{fill:url(#Безымянный_градиент_19-2);}.cls-7{fill:url(#Безымянный_градиент_19-3);}</style><linearGradient id="Безымянный_градиент_19" x1="228.594" y1="499.8913" x2="770.44948" y2="499.8913" gradientUnits="userSpaceOnUse"><stop offset="0" stop-color="#e09340"/><stop offset="1" stop-color="#d5621d"/></linearGradient><linearGradient id="Безымянный_градиент_19-2" x1="554.59735" y1="409.96305" x2="585.16736" y2="409.96305" xlink:href="#Безымянный_градиент_19"/><linearGradient id="Безымянный_градиент_19-3" x1="554.59735" y1="483.33106" x2="585.16736" y2="483.33106" xlink:href="#Безымянный_градиент_19"/></defs><title>ванная</title><circle class="cls-1" cx="408" cy="408" r="408"/><path class="cls-2" d="M770.44948,545.40206A16.593,16.593,0,0,0,753.85737,528.81h-33.207V302.58863a80.58918,80.58918,0,0,0-161.17835,0v30.24679a16.59211,16.59211,0,0,0,33.18421,0V302.58863a47.40444,47.40444,0,1,1,94.80888,0V528.80889H245.1861A16.593,16.593,0,0,0,228.594,545.401c0,74.88318,47.36211,138.90468,113.70119,163.70433a75.37983,75.37983,0,0,0-20.65409,52.08518,16.5921,16.5921,0,0,0,33.1842,0c0-22.65579,17.28683-41.08785,38.53686-41.08785H605.68238c21.25,0,38.538,18.43206,38.538,41.08785a16.5921,16.5921,0,0,0,33.1842,0,75.38861,75.38861,0,0,0-20.65411-52.08518C723.08845,684.30674,770.44948,620.28414,770.44948,545.40206ZM595.74774,686.91959h-192.451c-72.4234,0-132.31343-54.67958-140.55141-124.9254H736.29912C728.06119,632.24,668.169,686.91959,595.74774,686.91959Z" transform="translate(-92 -92)"/><text class="cls-3" transform="translate(407.70801 796.53418)">*</text><text class="cls-3" transform="translate(317.85352 797.61523)">*</text><text class="cls-4" transform="translate(56.00049 340.30762)"><tspan class="cls-5">-</tspan><tspan x="72.73535" y="0">15%</tspan></text><path class="cls-6" d="M569.88235,388.05455a15.28586,15.28586,0,0,0-15.285,15.285v13.247a15.285,15.285,0,0,0,30.57,0v-13.247A15.28587,15.28587,0,0,0,569.88235,388.05455Z" transform="translate(-92 -92)"/><path class="cls-7" d="M569.88235,461.42256a15.28586,15.28586,0,0,0-15.285,15.285v13.247a15.285,15.285,0,1,0,30.57,0v-13.247A15.28587,15.28587,0,0,0,569.88235,461.42256Z" transform="translate(-92 -92)"/></svg>