<svg id="Слой_1" data-name="Слой 1" xmlns="http://www.w3.org/2000/svg" xmlns:xlink="http://www.w3.org/1999/xlink" viewBox="0 0 816 816"><defs><style>.cls-1{fill:#fff;}.cls-2{fill:url(#Безымянный_градиент_30);}.cls-3{fill:url(#Безымянный_градиент_30-2);}.cls-4{fill:url(#Безымянный_градиент_30-3);}</style><linearGradient id="Безымянный_градиент_30" x1="615.89357" y1="381.70104" x2="646.00142" y2="381.70104" gradientUnits="userSpaceOnUse"><stop offset="0" stop-color="#e09340"/><stop offset="1" stop-color="#d5621d"/></linearGradient><linearGradient id="Безымянный_градиент_30-2" x1="615.89357" y1="321.48534" x2="646.00142" y2="321.48534" xlink:href="#Безымянный_градиент_30"/><linearGradient id="Безымянный_градиент_30-3" x1="260.68658" y1="516.68001" x2="738.00142" y2="516.68001" xlink:href="#Безымянный_градиент_30"/></defs><title>грузччик</title><circle class="cls-1" cx="408" cy="408" r="408"/><rect class="cls-2" x="615.89357" y="366.64711" width="30.10785" height="30.10785"/><rect class="cls-3" x="615.89357" y="306.43141" width="30.10785" height="30.10785"/><path class="cls-4" d="M346.59934,278v61.962L289.04818,282.4108l-21.28625,21.28625L350.64884,386.584l-89.96226,89.94721,21.28625,21.25615,89.96227-89.9171L435.80891,471.744,318.70441,588.83348l-36.73158-36.73159-21.28625,21.28625L318.70441,631.421l21.30131-21.28625,13.4281,13.42811,21.28625,63.90393L442.64339,755.36l135.63586-50.85217a45.01114,45.01114,0,0,0,28.27128-32.72723c.16559-.79785,0-1.58066.21075-2.37854H738.00142V518.86282H707.89357V639.29423H601.32682a45.39593,45.39593,0,0,0-6.985-9.03236l-22.14433-22.11422,3.20647-.72259a75.72155,75.72155,0,0,0,57.1654-90.55125q-.18912-.83691-.397-1.66911l-3.38714-13.54853-107.56025,18.712-45.98975-9.19795-18.06471-18.06471,21.28624-21.28626L376.70719,370.06982v-61.962h75.26963V420.66606l52.68874-21.07549,37.63482,15.05393,37.63481-15.05393,52.68875,21.07549V308.10785h75.26963v60.21571h30.10785V278ZM460.31669,538.82433l60.44152,12.04313,83.50415-14.48188a45.67359,45.67359,0,0,1-35.48211,41.6241l-56.49739,12.73563L573.05557,651.503a15.05441,15.05441,0,0,1-5.35921,24.74867L450.27573,720.31446l-49.24139-49.136L379.718,607.30464l-18.426-18.47116,74.50188-74.48683ZM602.51608,376.19676l-22.58089-9.03236-37.63481,15.05393L504.66556,367.1644l-22.58089,9.03236V308.10785H602.51608Z" transform="translate(-92 -92)"/></svg>