<?xml version="1.0" standalone="no"?>
<!DOCTYPE svg PUBLIC "-//W3C//DTD SVG 20010904//EN"
 "http://www.w3.org/TR/2001/REC-SVG-20010904/DTD/svg10.dtd">
<svg version="1.0" xmlns="http://www.w3.org/2000/svg"
 width="1920.000000pt" height="698.000000pt" viewBox="0 0 1920.000000 698.000000"
 preserveAspectRatio="xMidYMid meet">
<metadata>
Created by potrace 1.15, written by Peter Selinger 2001-2017
</metadata>
<g transform="translate(0.000000,698.000000) scale(0.100000,-0.100000)"
fill="#000000" stroke="none">
<path d="M18618 6963 c-27 -9 -48 -20 -48 -26 0 -5 7 -7 15 -3 8 3 15 1 15 -4
0 -14 -27 -39 -83 -79 -26 -19 -47 -38 -47 -43 0 -4 -14 -8 -31 -8 -27 0 -30
2 -19 15 11 13 10 14 -2 10 -9 -4 -18 -18 -21 -33 -9 -39 -44 -92 -62 -92 -22
0 -64 -50 -65 -76 0 -23 -16 -41 -90 -99 -41 -33 -50 -46 -50 -72 0 -21 -5
-33 -13 -33 -8 0 -24 -11 -37 -25 -13 -14 -31 -25 -39 -25 -20 -1 -57 -28 -48
-36 13 -13 -14 -43 -45 -49 -39 -9 -165 -70 -170 -83 -5 -14 -48 -25 -48 -13
0 6 5 11 10 11 6 0 10 7 10 15 0 18 0 18 -38 0 -20 -11 -29 -21 -25 -31 3 -8
2 -14 -3 -13 -16 4 -44 -13 -44 -26 0 -13 22 -25 43 -25 7 1 1 7 -12 14 -14 8
-19 16 -13 20 6 3 13 2 17 -4 12 -19 123 14 121 37 0 10 10 19 27 24 16 4 34
15 41 24 6 9 18 17 26 18 8 2 21 6 29 11 10 6 19 3 28 -10 12 -16 15 -17 24
-4 8 11 9 8 5 -12 -4 -16 -2 -28 4 -28 5 0 10 9 10 20 0 11 4 20 9 20 5 0 11
8 15 18 16 47 52 83 81 79 13 -1 21 5 23 18 2 11 9 26 15 33 8 11 14 4 24 -30
8 -28 9 -44 2 -47 -6 -1 -30 -18 -54 -36 -24 -19 -46 -31 -49 -28 -8 8 -6 -38
2 -58 8 -17 50 -19 60 -2 4 6 17 13 29 17 13 4 30 23 39 42 14 29 20 33 38 27
11 -4 31 -7 44 -6 12 0 22 -3 22 -8 0 -5 6 -8 13 -7 12 3 13 -30 2 -60 -8 -23
-25 -2 -19 24 6 24 -9 34 -21 14 -4 -6 -15 -8 -26 -5 -16 6 -19 1 -19 -31 0
-21 -7 -45 -15 -54 -14 -16 -14 -18 4 -23 13 -3 18 -1 15 8 -3 8 12 17 41 25
25 7 48 17 51 21 3 5 16 9 30 9 14 0 22 -4 19 -10 -3 -5 -15 -10 -25 -10 -10
0 -22 -5 -26 -12 -5 -8 0 -9 14 -6 38 10 34 -10 -4 -22 -58 -19 -84 -36 -123
-77 -20 -22 -48 -44 -63 -51 -25 -10 -34 -28 -28 -57 1 -6 -3 -5 -10 1 -25 25
19 97 65 106 24 4 34 48 12 48 -9 0 -18 6 -20 13 -4 10 -6 10 -6 0 -1 -7 -9
-13 -18 -13 -9 0 -25 -7 -35 -17 -17 -15 -27 -5 -11 11 4 4 8 17 8 29 0 19 5
22 34 19 31 -2 61 11 61 28 0 8 -100 -13 -119 -25 -6 -3 -11 1 -11 10 0 8 -6
18 -14 21 -8 3 -12 15 -10 27 4 19 3 19 -7 -3 -7 -14 -11 -29 -10 -33 1 -5 -5
-28 -14 -53 -18 -53 -18 -57 -5 -49 15 9 12 -2 -6 -30 -17 -26 -46 -34 -43
-12 3 26 -2 37 -16 37 -19 0 -19 14 0 30 9 7 13 15 10 18 -2 3 3 11 13 18 16
12 16 13 -3 14 -17 1 -17 3 5 13 l25 11 -28 4 c-17 2 -25 8 -21 15 4 7 -4 2
-18 -10 -13 -13 -30 -23 -37 -23 -7 0 -9 -5 -6 -10 4 -6 15 -8 26 -5 25 8 24
-6 -1 -35 -11 -13 -20 -26 -20 -30 0 -12 -82 -50 -92 -43 -6 3 -22 -6 -36 -20
-15 -14 -39 -29 -54 -32 -16 -4 -28 -11 -28 -16 0 -5 -9 -9 -19 -9 -24 0 -37
-29 -13 -32 9 0 22 -1 29 -1 6 0 14 -6 18 -14 3 -11 1 -13 -10 -10 -8 4 -17 2
-20 -4 -11 -16 23 -21 55 -8 22 10 28 18 24 32 -7 21 59 97 83 97 20 0 15 -12
-17 -44 -33 -33 -38 -46 -15 -46 8 0 15 -4 15 -9 0 -15 46 0 59 20 10 16 9 26
-3 49 -14 29 -7 48 14 35 6 -3 10 0 10 8 0 17 27 30 34 18 3 -5 -3 -26 -13
-47 -11 -21 -16 -43 -13 -49 3 -5 6 -19 7 -30 0 -13 8 -21 23 -23 12 -2 22 -9
22 -17 0 -20 46 -45 85 -45 32 0 36 -3 33 -22 -2 -14 2 -22 10 -21 6 2 12 -4
12 -12 0 -31 40 -8 100 58 24 27 57 55 72 63 31 16 37 34 11 34 -15 0 -15 2
-3 14 25 23 60 30 60 12 0 -9 -5 -16 -11 -16 -5 0 -7 -5 -3 -11 5 -8 9 -7 14
1 4 7 15 10 23 7 20 -8 40 16 26 30 -7 7 -5 15 6 27 19 19 35 21 35 4 0 -6 9
-3 20 7 11 10 20 26 20 37 0 10 6 18 13 18 6 0 18 13 25 29 8 18 18 28 27 25
7 -3 22 2 32 10 75 66 84 77 74 90 -8 10 -1 12 34 10 27 -2 48 2 55 11 6 7 21
11 33 9 l22 -5 -22 10 c-27 12 -29 33 -8 55 8 8 15 19 15 25 0 6 13 11 29 11
34 0 48 15 31 35 -8 10 -8 15 3 22 8 4 22 20 32 35 10 16 32 32 54 38 20 6 46
24 59 40 31 39 12 39 -25 0 -34 -37 -49 -38 -55 -5 -4 20 -1 26 18 31 13 3 24
9 25 13 5 48 10 66 19 69 5 2 10 8 10 14 0 6 14 30 30 55 33 48 35 53 20 53
-5 0 -28 -32 -51 -71 -23 -39 -50 -74 -58 -77 -9 -3 -30 -16 -47 -29 -32 -24
-54 -30 -54 -14 0 13 -42 22 -55 11 -6 -5 -21 -7 -33 -3 -25 6 -55 -14 -45
-30 4 -6 0 -8 -11 -4 -10 4 -24 -1 -36 -13 -22 -22 -29 -24 -48 -12 -10 7 2
30 44 93 32 46 66 107 77 134 20 55 52 95 75 95 9 0 13 7 9 20 -6 23 18 49 26
28 4 -9 6 -7 6 4 1 9 -4 20 -11 24 -14 9 18 34 43 34 9 0 19 7 23 15 6 16 26
21 26 7 0 -5 -11 -22 -25 -38 -14 -16 -25 -33 -25 -39 1 -5 15 7 33 27 24 28
36 35 47 28 13 -8 13 -13 2 -31 -13 -21 -13 -21 9 -5 13 9 31 16 41 16 11 0
18 7 18 19 0 11 5 23 10 26 26 16 2 23 -92 24 l-103 2 -53 -51 c-29 -27 -60
-50 -70 -50 -10 0 -24 -6 -32 -12 -10 -10 -10 -6 2 12 8 14 29 29 46 34 29 9
48 39 36 58 -8 12 -54 9 -106 -9z m46 -118 c-17 -13 -17 -14 -1 -15 19 0 21
-3 8 -28 -5 -9 -14 -37 -21 -61 -7 -25 -40 -82 -76 -131 -54 -73 -71 -89 -99
-94 -39 -8 -59 -28 -51 -53 4 -12 -5 -29 -25 -50 -36 -40 -43 -41 -35 -8 8 31
0 32 -25 3 -10 -13 -18 -18 -19 -12 0 7 18 30 40 53 22 22 40 45 40 49 0 4 22
33 48 63 26 29 63 83 81 119 19 36 41 69 50 74 14 9 12 11 -8 16 -14 3 -26 11
-29 18 -6 19 26 26 43 8 16 -16 45 -12 45 6 0 6 -6 8 -14 5 -15 -6 -30 19 -20
34 9 15 34 10 28 -6 -9 -23 6 -18 28 11 11 14 23 23 26 19 3 -3 -3 -12 -14
-20z"/>
<path d="M18025 6691 c-3 -5 0 -13 6 -17 8 -4 4 -11 -12 -20 -13 -7 -19 -13
-13 -14 7 0 11 -11 10 -25 -1 -28 -44 -54 -57 -34 -7 12 -40 5 -38 -8 3 -20
-2 -34 -11 -28 -5 3 -10 1 -10 -4 0 -6 4 -11 10 -11 6 0 6 -9 0 -26 -6 -14
-10 -36 -10 -49 0 -18 -4 -23 -15 -19 -8 4 -15 1 -15 -5 0 -6 -7 -11 -16 -11
-10 0 -14 -6 -11 -14 3 -8 -1 -17 -9 -20 -24 -9 -27 -7 -14 9 7 8 8 15 4 15
-5 0 -15 -9 -22 -20 -10 -17 -10 -20 3 -20 23 0 -12 -49 -43 -61 -32 -12 -17
-29 19 -22 18 3 29 15 37 37 13 34 58 67 70 51 8 -11 48 -35 58 -35 4 0 -1 9
-11 20 -25 28 -29 70 -7 68 38 -3 54 2 49 16 -6 16 19 43 30 32 3 -3 1 -6 -5
-6 -7 0 -12 -5 -12 -11 0 -5 5 -7 11 -3 8 5 10 -3 7 -25 -2 -17 -2 -31 1 -31
14 1 35 19 29 26 -4 3 3 15 15 26 l22 19 -22 -10 c-21 -11 -21 -10 -6 19 8 16
12 38 9 48 -4 10 0 38 7 63 11 37 11 49 0 77 -13 32 -27 40 -38 23z"/>
<path d="M19173 6489 c-6 -6 -20 -16 -30 -23 -66 -39 -83 -52 -80 -61 2 -5 -2
-16 -10 -23 -7 -7 -13 -22 -13 -32 0 -11 -9 -24 -20 -30 -11 -6 -20 -17 -20
-25 0 -8 9 -15 20 -15 13 0 20 -7 20 -20 0 -17 4 -19 26 -14 19 5 25 4 20 -5
-4 -6 -13 -11 -21 -11 -17 0 -30 -51 -14 -60 7 -5 8 -13 3 -21 -5 -8 -9 -20
-11 -28 -1 -8 -8 -18 -15 -22 -35 -22 -42 -28 -35 -35 3 -4 13 -1 21 5 8 7 21
9 27 5 7 -4 9 -3 5 4 -10 16 13 25 29 12 12 -10 15 -9 15 9 0 11 -4 21 -10 21
-5 0 -9 11 -8 25 1 14 8 25 15 25 6 0 35 5 63 11 l50 11 0 138 c0 124 -2 139
-17 143 -17 4 -17 5 0 6 9 0 17 6 17 11 0 13 -13 13 -27 -1z"/>
<path d="M18806 6084 c-3 -9 -6 -24 -6 -33 0 -13 -6 -17 -22 -14 -19 4 -23 0
-24 -21 -2 -27 10 -34 21 -15 4 6 13 8 21 5 7 -3 20 1 28 9 31 32 36 10 5 -24
-15 -15 -19 -30 -15 -47 7 -28 1 -30 -20 -9 -21 21 -44 19 -44 -4 0 -11 6 -18
16 -17 37 3 22 -36 -24 -64 -15 -9 -15 -12 7 -30 l24 -21 31 53 c16 29 34 56
39 59 5 4 7 11 3 17 -3 6 6 13 23 17 16 3 39 17 51 31 l23 24 -35 0 c-29 0
-37 4 -42 24 -3 13 -15 26 -27 29 -16 4 -19 11 -14 26 7 24 -10 29 -19 5z"/>
<path d="M18963 6020 c1 -11 5 -20 9 -20 17 0 -24 -48 -46 -54 -26 -6 -78 -80
-70 -100 8 -21 46 -27 64 -11 9 8 26 15 38 15 11 0 24 5 27 10 3 6 15 10 25
10 13 0 17 5 14 14 -3 8 -1 17 5 21 6 3 11 17 11 31 0 15 6 24 15 24 8 0 15
-5 15 -12 0 -6 7 -4 18 5 21 19 42 22 42 7 0 -16 30 -12 37 5 8 23 -3 29 -46
27 -44 -3 -61 11 -34 27 16 9 16 10 1 11 -20 0 -44 -23 -53 -50 -3 -11 -11
-20 -16 -20 -13 0 -11 14 3 28 9 9 6 12 -15 12 -20 0 -27 5 -27 20 0 11 -4 20
-9 20 -6 0 -9 -9 -8 -20z"/>
<path d="M19189 5903 c-1 -5 -1 -11 0 -15 0 -4 -6 -5 -14 -2 -9 4 -15 0 -15
-9 0 -11 -15 -17 -57 -22 -32 -4 -71 -13 -88 -20 -16 -7 -43 -16 -60 -19 -49
-11 -85 -28 -79 -37 6 -10 68 -2 97 13 11 6 17 5 17 -3 0 -15 -30 -38 -51 -39
-9 0 -19 -7 -22 -14 -3 -8 -20 -22 -37 -31 -31 -16 -31 -16 -20 4 14 27 2 26
-47 -1 -67 -39 -110 -81 -132 -130 -12 -26 -33 -55 -46 -64 -14 -9 -22 -20
-19 -26 8 -12 -16 -39 -28 -32 -5 3 -15 0 -23 -6 -8 -6 -19 -9 -26 -5 -8 6 -8
2 1 -14 l11 -22 34 21 c19 12 40 18 46 14 7 -4 20 3 30 17 14 17 21 21 27 12
6 -10 19 -9 59 1 46 12 124 67 205 143 24 22 34 10 14 -19 -9 -12 -16 -25 -16
-28 0 -11 77 -4 163 15 l87 20 0 152 c0 84 -2 153 -5 153 -3 0 -6 -3 -6 -7z"/>
<path d="M17826 5878 c-10 -13 -28 -34 -40 -47 l-21 -24 21 5 c23 6 53 -7 42
-17 -4 -4 -28 -8 -55 -10 -58 -3 -83 -12 -83 -31 0 -8 -4 -14 -10 -14 -5 0
-10 -9 -10 -19 0 -11 -9 -23 -20 -26 -12 -4 -19 -14 -18 -23 2 -12 -9 -21 -39
-30 -24 -8 -43 -18 -43 -24 0 -5 5 -6 11 -2 8 4 8 0 0 -15 -10 -18 -9 -21 9
-21 16 0 20 4 15 19 -3 11 -1 22 5 26 18 11 19 3 5 -50 -7 -27 -10 -64 -8 -81
5 -29 3 -31 -19 -27 -21 4 -27 -1 -40 -36 -9 -23 -23 -41 -30 -41 -16 0 -99
-83 -117 -117 -11 -22 -10 -22 20 -16 39 8 35 -1 -29 -68 -25 -27 -60 -51 -81
-57 -31 -10 -38 -18 -47 -51 -12 -44 -19 -44 99 -2 89 31 116 50 111 78 -2 12
0 23 6 23 5 0 10 4 10 10 0 5 -7 7 -16 3 -12 -4 -15 -1 -12 13 2 11 17 24 38
30 24 8 36 19 38 33 2 12 10 25 18 28 8 3 14 15 14 27 0 12 14 36 31 54 23 24
28 35 21 49 -11 21 -5 46 9 37 11 -6 48 35 49 53 0 7 11 15 25 19 14 3 25 11
25 16 0 5 8 22 19 36 10 15 21 42 24 61 l7 33 -38 -7 c-20 -4 -42 -11 -49 -16
-7 -7 -13 -6 -17 0 -11 16 57 42 94 36 39 -7 82 17 74 40 -4 9 0 15 9 15 9 0
17 13 21 34 8 42 33 67 46 46 5 -8 12 -11 17 -7 4 5 2 12 -6 16 -7 5 -12 11
-12 15 3 17 0 20 -8 7 -5 -7 -14 -10 -20 -7 -15 9 -14 24 2 29 6 2 4 3 -5 2
-9 -2 -18 1 -20 6 -2 5 -12 -1 -22 -13z"/>
<path d="M17418 5788 c-16 -17 -28 -37 -28 -44 0 -8 -4 -14 -10 -14 -5 0 -10
-7 -10 -15 0 -10 -10 -15 -29 -15 -16 0 -33 -6 -37 -12 -15 -21 -7 -87 11
-100 6 -4 2 -8 -7 -8 -10 0 -18 -7 -18 -15 0 -8 -8 -29 -18 -47 -10 -18 -17
-39 -14 -46 6 -18 -17 -42 -39 -42 -11 0 -19 -5 -19 -11 0 -5 4 -8 9 -5 9 6
31 -37 31 -63 0 -16 -38 -61 -52 -61 -7 0 3 53 13 66 6 7 0 10 -19 9 -34 -2
-52 -12 -52 -28 0 -7 -16 -23 -35 -36 -19 -13 -33 -28 -32 -33 1 -5 -7 -15
-18 -21 -11 -7 -28 -21 -38 -32 -17 -19 -17 -19 4 -27 13 -5 38 -2 66 7 54 18
68 11 33 -16 -14 -10 -29 -23 -35 -27 -5 -4 -18 -11 -28 -15 -9 -3 -21 -17
-26 -30 -5 -14 -21 -33 -35 -45 -14 -11 -26 -25 -26 -30 0 -6 -10 -19 -23 -29
-13 -10 -26 -26 -30 -36 -5 -15 -4 -16 13 -7 10 5 21 14 24 19 3 5 34 12 68
16 88 9 145 38 153 76 5 22 24 43 68 75 96 70 114 88 121 120 8 34 76 114 99
114 29 0 41 30 42 110 0 43 -2 77 -5 75 -9 -5 -6 38 3 53 5 6 5 12 1 12 -4 0
1 9 11 20 20 23 13 39 -9 21 -9 -7 -17 -8 -20 -2 -3 5 0 11 6 14 7 2 10 7 7
11 -12 12 -58 -5 -64 -24 -7 -23 -36 -34 -47 -18 -14 22 -4 42 29 59 18 9 40
22 48 29 12 10 15 10 15 -4 0 -14 4 -13 30 6 35 26 41 46 6 23 -20 -13 -25
-14 -35 -1 -8 10 -9 16 -1 21 5 3 10 13 10 21 0 24 -33 14 -62 -18z"/>
<path d="M17256 5715 c-3 -8 -12 -15 -20 -15 -8 0 -19 -8 -25 -17 -11 -21 -62
-26 -54 -6 3 7 1 13 -5 13 -19 0 -42 -12 -42 -21 0 -10 -10 -24 -42 -60 -20
-21 -25 -40 -6 -21 7 7 19 12 28 12 9 0 25 9 35 20 30 33 29 14 -1 -29 -27
-38 -54 -53 -54 -31 0 28 -59 -18 -60 -46 0 -21 51 -26 71 -8 12 11 19 13 19
5 0 -7 4 -10 9 -7 4 3 6 16 4 29 -4 20 4 29 45 55 27 18 56 32 64 32 24 0 40
26 44 70 4 42 0 51 -10 25z"/>
<path d="M11930 5423 c-59 -8 -102 -27 -115 -54 -18 -34 -16 -35 102 -38 66
-2 108 2 145 14 79 26 112 63 71 79 -16 7 -149 6 -203 -1z"/>
<path d="M16828 5349 c-12 -6 -18 -22 -18 -44 0 -31 -3 -35 -38 -44 -28 -8
-40 -18 -49 -41 -6 -17 -17 -29 -24 -28 -20 5 -23 -32 -4 -46 15 -11 10 -17
-42 -56 -44 -34 -54 -45 -40 -48 29 -6 67 7 67 22 0 16 28 42 36 33 3 -3 -2
-29 -11 -59 -8 -29 -16 -55 -16 -58 -2 -14 -9 -11 -9 3 0 15 -3 15 -22 5 -13
-7 -25 -14 -27 -15 -2 -1 4 -9 12 -18 17 -17 37 -20 37 -6 0 5 16 15 35 21 39
13 42 18 19 35 -15 11 -15 15 7 46 13 18 31 40 39 47 13 12 13 13 -3 8 -37
-12 -31 25 12 68 22 23 41 48 41 56 1 12 4 11 14 -3 8 -11 20 -15 30 -11 10 4
28 1 42 -6 17 -10 27 -11 35 -3 8 8 2 13 -20 18 -17 4 -31 11 -31 16 0 13 17
11 26 -3 11 -18 33 19 26 45 -3 12 -12 27 -20 33 -8 6 -12 15 -9 21 4 6 -5 10
-21 10 -15 0 -34 2 -42 6 -8 4 -23 2 -32 -4z"/>
<path d="M19157 5346 c-9 -7 -17 -17 -17 -23 0 -5 -16 -15 -35 -23 -31 -12
-32 -15 -17 -26 14 -11 15 -13 2 -14 -9 0 -21 5 -28 12 -8 8 -12 8 -12 1 0 -6
13 -16 30 -23 l29 -12 -22 -18 c-13 -11 -28 -15 -37 -10 -19 9 -119 -2 -145
-18 -18 -10 -18 -11 -2 -12 10 0 15 -4 12 -10 -3 -5 -17 -10 -31 -10 -14 0
-34 -5 -45 -11 -20 -10 -20 -11 -2 -24 17 -13 16 -14 -9 -20 -14 -4 -34 -15
-44 -26 -16 -18 -16 -19 0 -19 9 0 32 6 50 14 48 20 120 31 112 17 -14 -22
-85 -52 -110 -45 -22 5 -24 3 -19 -17 5 -19 3 -21 -18 -16 -14 4 -34 4 -46 1
-22 -6 -22 -6 3 -29 16 -15 21 -26 14 -30 -6 -4 -17 1 -25 11 -10 15 -16 16
-27 6 -8 -6 -18 -9 -21 -5 -10 10 -36 -17 -31 -32 3 -7 1 -16 -5 -20 -7 -3
-11 2 -11 15 0 17 -3 19 -19 10 -11 -5 -38 -12 -61 -14 -23 -2 -46 -9 -50 -15
-4 -7 -11 -11 -16 -9 -11 3 -54 -24 -54 -34 0 -3 12 -11 28 -17 18 -8 20 -10
5 -7 -12 2 -30 -2 -40 -9 -19 -13 -24 -15 -48 -15 -10 0 -15 -11 -15 -35 0
-37 -18 -48 -27 -16 -3 11 -11 22 -19 25 -15 6 -107 -24 -112 -36 -2 -5 -8 -8
-13 -8 -6 0 -7 5 -3 11 14 24 -48 -19 -107 -73 -14 -13 -25 -15 -48 -8 -24 7
-36 4 -56 -12 -14 -10 -25 -26 -25 -34 0 -17 -5 -17 -30 -2 -16 10 -23 9 -44
-11 -26 -25 -56 -23 -56 4 0 21 -30 19 -31 -2 0 -15 -2 -15 -9 2 -7 17 -9 15
-9 -12 -1 -31 -21 -49 -21 -20 0 8 -10 23 -22 34 -18 16 -28 19 -45 12 -33
-12 -28 -29 7 -29 17 0 30 -5 30 -11 0 -7 7 -17 17 -24 19 -14 9 -35 -18 -35
-10 0 -19 -6 -19 -14 0 -7 -7 -19 -15 -26 -8 -7 -15 -23 -15 -35 0 -17 7 -24
29 -28 15 -3 37 -3 49 0 17 4 20 10 15 39 -6 33 9 48 21 22 5 -10 8 -10 12 1
4 8 19 25 33 39 14 13 27 28 27 33 1 5 2 12 3 17 2 10 41 -40 41 -53 0 -5 -5
-3 -10 5 -7 12 -12 8 -23 -18 -7 -18 -15 -30 -18 -28 -2 2 -4 -9 -5 -25 -1
-34 -29 -69 -55 -69 -10 0 -26 -13 -36 -30 -9 -16 -23 -30 -30 -30 -7 0 -18
-10 -24 -22 -7 -13 -19 -28 -28 -35 -14 -11 -14 -12 5 -13 12 0 41 13 65 30
24 16 49 30 55 30 6 0 10 14 9 30 -2 29 0 30 38 30 34 0 39 2 34 20 -6 22 25
50 53 49 11 0 9 -5 -7 -16 -13 -8 -23 -19 -23 -24 0 -16 47 -9 64 10 9 10 32
21 52 24 19 3 46 15 61 26 14 12 34 21 44 21 11 0 19 5 19 10 0 12 90 53 98
46 2 -3 18 2 34 10 23 12 29 12 27 2 -2 -7 0 -23 4 -35 6 -15 1 -28 -18 -49
-25 -27 -29 -25 -26 9 3 24 -30 22 -36 -3 -3 -13 -17 -22 -42 -26 -35 -7 -125
-43 -106 -44 5 0 3 -6 -4 -12 -10 -11 -15 -9 -27 6 -17 24 -25 18 -18 -11 5
-19 9 -20 33 -11 14 5 37 12 51 15 13 2 30 9 37 14 7 6 17 8 23 4 5 -3 20 1
31 9 26 18 59 3 52 -25 -7 -24 -61 -43 -80 -28 -7 7 -16 9 -20 5 -3 -3 -1 -6
5 -6 7 0 12 -4 12 -9 0 -13 -37 -20 -48 -9 -6 6 -16 6 -28 0 -11 -5 -39 -13
-64 -17 -54 -9 -119 -33 -142 -53 -9 -8 -32 -17 -50 -21 -21 -5 -32 -13 -31
-22 2 -11 -14 -14 -90 -13 -50 1 -110 -3 -132 -8 -22 -6 -50 -10 -61 -10 -15
0 -28 -13 -44 -45 -12 -25 -38 -55 -60 -69 -21 -14 -41 -32 -44 -40 -3 -8 -12
-14 -20 -14 -23 0 -42 -40 -25 -51 10 -6 4 -9 -18 -9 -17 0 -35 -4 -38 -10 -3
-5 -15 -10 -26 -10 -11 0 -19 -7 -19 -17 -1 -17 -1 -17 -11 0 -14 24 -32 22
-24 -3 5 -15 2 -20 -12 -20 -11 0 -24 5 -31 12 -13 13 -42 -6 -42 -28 0 -10
-13 -14 -39 -14 -22 0 -41 -4 -43 -9 -2 -5 -14 -5 -28 1 -18 7 -21 11 -11 17
7 5 11 14 7 19 -9 15 -36 4 -36 -14 0 -8 -8 -15 -17 -16 -10 0 -23 -2 -28 -2
-18 -2 -85 -58 -85 -71 0 -6 -10 -20 -21 -31 -22 -19 -22 -19 -10 4 8 14 8 22
1 22 -18 0 -11 22 9 27 19 5 19 5 0 24 -25 25 -26 24 -44 -11 -19 -37 -19 -50
0 -50 8 0 15 -4 15 -10 0 -5 -14 -10 -30 -10 -18 0 -33 -6 -36 -15 -7 -17 -44
-20 -44 -4 0 7 8 18 17 25 10 7 14 16 10 21 -5 4 -18 -3 -28 -17 -11 -14 -26
-32 -34 -42 -7 -9 -15 -24 -17 -34 -5 -26 -28 -30 -28 -5 0 31 -25 26 -69 -14
l-39 -35 -4 30 c-4 23 0 34 14 41 11 6 17 16 15 24 -4 8 5 15 24 19 16 3 29
10 29 16 0 5 -3 9 -7 9 -21 -3 -33 2 -33 15 0 10 16 14 56 14 35 0 60 5 65 13
4 8 6 16 3 18 -3 3 -9 -1 -14 -9 -11 -18 -20 -10 -24 22 -1 13 -5 29 -9 35 -4
7 3 19 15 27 27 19 42 21 33 4 -4 -7 3 -2 15 12 12 14 31 32 42 41 21 16 21
16 -9 21 -22 3 -30 1 -26 -8 3 -9 -4 -12 -23 -11 -15 1 -29 8 -31 14 -3 7 3 9
16 6 12 -3 21 -3 21 0 0 2 -9 7 -20 10 -14 4 -26 -4 -42 -26 -18 -25 -19 -29
-5 -24 22 8 30 -8 15 -32 -13 -21 -55 -34 -64 -20 -3 5 -12 9 -20 9 -25 0 -6
-18 26 -25 16 -4 33 -11 36 -17 9 -14 -35 -47 -63 -48 -12 0 -25 -5 -28 -10
-4 -6 -11 -7 -17 -4 -6 4 -21 -6 -34 -21 -22 -25 -22 -29 -8 -40 24 -17 2 -55
-31 -55 -22 0 -25 4 -25 40 0 27 7 48 20 62 11 12 16 24 11 28 -28 17 10 69
51 70 10 0 22 9 28 21 14 25 4 38 -13 17 -18 -23 -47 -30 -47 -13 0 8 4 15 8
15 5 0 17 9 29 19 11 10 34 26 51 35 17 9 36 25 42 36 8 15 21 20 51 20 22 0
38 4 34 9 -3 5 -22 7 -43 4 -33 -6 -36 -5 -24 9 8 10 9 19 3 22 -5 3 -8 14 -7
24 3 14 12 17 54 15 28 -1 54 2 57 7 10 17 48 12 41 -5 -7 -20 4 -19 21 3 10
12 16 14 19 5 7 -16 14 -16 38 2 15 12 17 17 7 29 -10 12 -8 17 8 25 27 15 31
14 24 -6 -5 -13 1 -11 28 8 19 13 43 29 54 35 11 6 20 17 20 25 0 8 4 20 9 28
6 10 3 12 -13 7 -11 -3 -31 -9 -43 -12 -22 -6 -76 -43 -106 -71 -7 -7 -20 -13
-28 -13 -9 0 -12 -5 -8 -11 8 -14 -14 -29 -43 -29 -28 0 -30 14 -5 32 10 7 21
21 25 30 3 10 25 27 49 38 53 25 95 61 100 86 2 10 14 21 28 24 14 3 26 13 28
22 2 13 -2 15 -19 11 -15 -4 -20 -3 -15 5 4 7 18 12 32 12 28 0 60 19 106 62
17 16 44 32 60 35 15 3 29 12 29 19 1 8 2 20 3 27 1 6 11 12 23 11 13 0 24 7
26 18 3 11 0 18 -9 18 -8 0 -14 3 -14 8 0 9 66 52 80 52 12 0 12 8 0 35 -8 18
-9 18 -9 2 -1 -18 -58 -50 -73 -41 -5 3 -8 1 -8 -5 0 -17 -59 -40 -120 -47
-47 -5 -57 -9 -52 -22 4 -11 1 -14 -11 -9 -26 10 -77 -4 -77 -20 0 -8 -17 -21
-37 -29 -21 -8 -46 -19 -55 -24 -22 -13 -48 -13 -48 -1 0 5 12 18 28 29 22 17
25 23 15 33 -7 7 -13 16 -13 20 0 4 39 20 86 34 63 19 84 30 80 40 -3 8 5 21
17 30 20 14 23 14 33 0 9 -12 17 -13 38 -5 35 13 33 30 -3 30 -16 0 -31 6 -34
13 -3 8 -12 5 -29 -11 -14 -13 -37 -26 -52 -30 -14 -4 -26 -11 -27 -17 -2 -13
-55 -45 -74 -45 -24 0 -17 18 13 34 57 32 59 34 37 50 -26 20 -74 20 -81 1 -5
-12 -10 -13 -20 -4 -7 6 -19 8 -26 4 -7 -4 -2 3 11 14 13 12 32 21 42 21 10 0
35 11 55 25 l37 25 -52 0 c-43 0 -53 3 -59 21 -7 19 -9 19 -21 5 -19 -22 -34
-20 -28 4 7 28 -9 35 -38 16 -32 -21 -46 -21 -17 0 31 21 24 36 -18 39 -19 1
-45 5 -56 9 -14 4 -27 1 -37 -9 -20 -19 -45 -19 -90 0 -46 19 -44 19 -51 -10
-3 -13 -18 -37 -32 -52 -14 -15 -23 -35 -21 -45 3 -10 -4 -23 -19 -33 -23 -15
-24 -14 -24 5 0 13 -7 20 -20 20 -11 0 -20 -7 -20 -15 0 -8 -10 -20 -22 -26
-18 -10 -24 -8 -41 12 -15 19 -20 20 -28 8 -5 -7 -9 -19 -9 -26 0 -12 -38 -28
-47 -20 -2 3 3 18 12 34 l17 28 -20 -25 c-25 -30 -59 -34 -75 -9 -8 13 -15 15
-29 8 -24 -13 -23 -26 2 -34 28 -9 25 -21 -10 -35 -25 -10 -32 -10 -45 4 -9 9
-20 16 -23 16 -10 0 -42 -38 -42 -49 0 -5 -10 -12 -22 -16 -14 -4 -18 -8 -10
-12 6 -2 12 -11 12 -19 0 -12 -4 -12 -20 -2 -11 7 -20 23 -20 35 0 28 -20 30
-27 3 -3 -11 -10 -20 -15 -20 -5 0 -12 9 -15 20 -7 26 -15 25 -41 -3 -25 -27
-29 -69 -7 -87 21 -18 19 -27 -12 -45 l-28 -16 30 6 c35 8 86 8 93 0 6 -6 -37
-45 -50 -45 -4 0 -8 5 -8 11 0 18 -52 0 -83 -29 -27 -26 -28 -26 -55 -9 -15
10 -35 21 -44 24 -10 3 -18 14 -18 24 0 11 -4 19 -10 19 -5 0 2 12 15 26 14
15 25 31 25 36 0 11 -43 -1 -48 -13 -10 -26 -64 -89 -72 -84 -7 4 -6 13 0 26
14 24 -11 27 -34 3 -18 -17 -21 -28 -6 -19 6 3 10 -1 10 -10 0 -8 -12 -20 -26
-25 -34 -13 -47 -13 -41 3 2 6 7 23 11 37 7 23 6 24 -8 6 -8 -10 -19 -15 -25
-11 -16 9 -14 25 3 25 8 0 16 7 20 15 3 8 15 15 26 15 23 0 27 15 5 27 -12 7
-11 13 9 36 13 15 32 27 43 27 12 0 26 7 33 15 7 8 19 15 26 15 8 0 14 5 14
10 0 14 -13 12 -36 -5 -24 -18 -54 -19 -54 -2 0 10 -26 14 -105 15 -66 2 -105
-1 -105 -8 0 -5 -8 -10 -18 -10 -11 0 -27 -9 -37 -20 -10 -11 -26 -22 -37 -26
-13 -4 -17 -11 -13 -25 11 -32 -5 -24 -66 36 -21 20 -33 26 -36 17 -3 -6 -9
-9 -14 -6 -13 8 -39 -14 -39 -33 0 -10 4 -11 19 -3 27 14 31 13 31 -9 0 -11
-8 -22 -17 -24 -13 -3 -11 -5 6 -6 13 0 30 7 37 17 10 13 12 14 12 2 -3 -48
-2 -48 77 -45 81 3 83 1 69 -52 -4 -16 -15 -23 -38 -25 -23 -2 -32 -8 -34 -25
-4 -27 -24 -30 -43 -7 -7 9 -21 13 -32 10 -44 -11 8 24 63 43 43 15 51 20 36
26 -11 5 -21 3 -26 -5 -4 -7 -24 -14 -45 -16 -28 -2 -35 1 -31 12 3 9 -1 14
-13 14 -30 0 -51 -11 -51 -26 0 -10 8 -13 28 -8 l27 6 -25 -21 c-14 -11 -28
-21 -32 -21 -5 0 -8 -5 -8 -11 0 -5 4 -8 9 -4 12 7 24 -12 16 -25 -4 -7 -16
-5 -33 4 -15 8 -35 17 -46 20 -15 5 -17 13 -13 40 6 38 0 51 -18 36 -9 -7 -16
-6 -25 5 -18 22 -32 18 -30 -7 4 -45 1 -52 -15 -38 -21 17 -28 8 -16 -22 5
-14 5 -31 1 -38 -6 -10 -10 -7 -15 12 -5 19 -13 25 -36 26 -45 1 -52 11 -24
34 25 19 38 18 41 -3 1 -5 2 -12 3 -16 1 -9 41 48 41 58 0 4 -12 14 -26 24
-18 12 -29 13 -38 6 -7 -6 -34 -14 -60 -17 -25 -4 -46 -11 -46 -15 0 -5 -5 -9
-11 -9 -6 0 -17 -7 -25 -15 -9 -8 -24 -15 -34 -15 -11 0 -22 -11 -29 -30 -5
-16 -14 -30 -19 -30 -5 0 -12 -13 -15 -29 -5 -21 -16 -35 -41 -46 -19 -9 -40
-23 -47 -31 -6 -8 -17 -14 -24 -14 -6 0 -20 -9 -30 -20 -10 -11 -27 -20 -38
-20 -10 0 -32 -11 -49 -25 -16 -14 -42 -27 -56 -30 -55 -11 -75 -20 -83 -37
-5 -10 -13 -26 -17 -35 -5 -10 -18 -20 -29 -23 -26 -6 -93 -65 -94 -82 -1 -22
-99 -99 -118 -93 -10 3 -33 -7 -57 -25 -44 -33 -54 -36 -54 -16 0 8 -6 16 -14
19 -8 3 -13 -1 -12 -11 0 -9 -9 -21 -21 -27 -13 -7 -20 -14 -17 -18 3 -3 -7
-14 -23 -23 -15 -10 -30 -21 -33 -24 -10 -12 -55 -40 -63 -40 -5 0 -5 9 -2 20
7 21 -9 28 -20 10 -4 -6 -11 -7 -17 -4 -6 4 -8 2 -5 -3 4 -6 0 -13 -8 -17 -8
-3 -15 -12 -15 -21 0 -8 -5 -15 -11 -15 -6 0 -8 7 -5 15 4 11 0 15 -11 13 -11
-2 -19 7 -25 30 -9 35 -19 40 -37 18 -7 -8 -20 -12 -31 -9 -22 6 -52 -35 -55
-76 -3 -32 -36 -71 -61 -71 -13 0 -14 3 -5 13 8 10 7 17 -1 25 -18 18 -28 14
-28 -11 0 -13 -5 -28 -11 -34 -8 -8 -6 -11 6 -10 36 4 23 -19 -23 -41 -27 -13
-48 -18 -50 -12 -5 14 -32 12 -32 -2 0 -7 6 -30 14 -52 11 -31 21 -41 52 -52
22 -8 49 -14 62 -14 12 0 22 -4 22 -10 0 -5 22 -9 49 -9 40 1 50 5 54 21 3 11
15 22 26 25 22 5 30 33 10 33 -7 0 -9 10 -5 25 7 28 -7 33 -30 10 -20 -19 -35
-19 -28 0 7 17 -21 21 -31 5 -3 -5 -11 -10 -16 -10 -6 0 0 18 12 40 13 22 26
40 31 40 4 0 8 5 8 10 0 6 -11 3 -24 -5 -14 -10 -27 -12 -30 -7 -3 6 9 19 26
30 20 13 35 17 39 11 3 -6 24 -9 45 -7 36 3 39 6 45 38 4 21 7 26 8 13 l1 -22
35 20 c19 12 41 19 48 16 8 -3 40 8 73 23 32 16 60 27 62 26 5 -6 -38 -79 -61
-105 l-22 -25 35 22 c19 12 34 28 32 36 -3 15 32 31 47 21 5 -3 12 -1 16 5 3
5 11 10 16 10 6 0 -2 -15 -16 -34 l-25 -33 50 -7 c54 -7 57 -10 35 -32 -8 -9
-15 -11 -15 -5 0 6 -19 11 -43 11 -24 0 -48 5 -54 11 -7 7 -18 3 -37 -14 -17
-16 -22 -27 -15 -29 18 -6 1 -28 -20 -28 -10 0 -26 -9 -35 -19 -18 -19 -17
-19 36 -6 29 8 62 14 73 14 62 1 137 11 157 22 12 7 34 25 48 41 26 30 46 37
36 13 -11 -31 4 -42 52 -40 26 2 38 1 28 -2 -11 -3 -47 -20 -81 -38 -34 -17
-78 -35 -98 -39 -21 -4 -37 -13 -37 -20 0 -14 -27 -31 -43 -28 -4 1 -13 -9
-19 -23 -18 -40 -28 -29 -13 15 13 38 13 40 -5 40 -11 0 -20 7 -20 15 0 8 -7
15 -15 15 -10 0 -15 -10 -15 -31 0 -24 -10 -40 -41 -69 -86 -80 -102 -88 -90
-43 7 26 18 36 54 47 9 3 17 13 17 22 0 12 -6 15 -25 10 -15 -4 -25 -2 -25 5
0 12 59 10 76 -3 12 -9 27 39 17 54 -7 12 -49 9 -79 -4 -25 -11 -29 -10 -55
21 -15 19 -25 41 -22 50 3 12 1 11 -11 -3 -10 -13 -12 -22 -6 -26 7 -5 8 -15
1 -33 -10 -25 -8 -27 14 -27 35 0 31 -16 -7 -30 l-33 -13 30 -6 29 -6 -29 -22
c-31 -23 -37 -29 -67 -61 -17 -17 -16 -20 4 -61 11 -23 24 -57 28 -74 4 -22
11 -31 22 -29 9 1 19 -5 21 -15 3 -13 5 -14 7 -3 1 8 17 28 37 44 31 26 36 28
44 14 9 -16 66 -35 75 -26 2 3 -16 15 -41 28 -25 13 -45 29 -45 36 0 20 50 54
79 54 24 -1 51 4 146 29 22 6 46 11 53 11 19 0 14 -20 -6 -28 -10 -4 -44 -29
-75 -56 -54 -48 -56 -50 -36 -64 15 -11 24 -11 32 -3 15 15 27 14 27 -3 0 -19
-46 -47 -65 -40 -8 4 -20 15 -26 26 -11 20 -11 20 -23 -3 -8 -17 -25 -27 -58
-34 -26 -5 -50 -13 -54 -17 -13 -14 -26 -9 -20 7 4 12 2 13 -17 2 -12 -6 -24
-13 -25 -14 -2 -1 6 -28 17 -60 14 -40 19 -73 16 -103 -14 -121 -15 -203 -3
-218 10 -13 10 -14 1 -8 -9 5 -13 1 -13 -12 0 -10 -11 -28 -23 -39 l-24 -20 1
37 c1 28 4 36 13 28 9 -7 11 1 8 34 -1 24 -6 52 -10 63 -6 16 -5 17 4 5 9 -12
11 -8 7 20 -3 19 -10 36 -15 38 -6 2 -11 12 -11 22 0 10 -5 22 -11 26 -6 3 -9
15 -6 25 3 10 1 22 -4 25 -5 3 -9 1 -9 -5 0 -6 -6 -8 -14 -5 -8 3 -17 0 -21
-6 -4 -7 0 -10 11 -8 13 2 19 -3 18 -14 -1 -10 3 -18 10 -19 6 0 2 -4 -9 -8
-11 -5 -25 -4 -32 1 -7 6 -14 5 -18 -2 -3 -6 -11 -8 -16 -5 -5 4 -9 -2 -9 -12
-1 -14 -4 -13 -14 7 -8 14 -12 28 -10 31 6 10 -22 30 -37 27 -10 -2 -13 6 -12
27 2 25 0 27 -8 12 -6 -10 -9 -38 -7 -62 2 -34 0 -41 -9 -33 -16 13 -17 -4 -1
-20 9 -9 9 -12 0 -12 -6 0 -9 -7 -6 -15 4 -8 11 -12 18 -8 7 3 6 1 -1 -7 -11
-12 -16 -11 -31 6 -19 20 -40 80 -25 71 4 -3 8 20 8 51 -1 47 -7 66 -35 110
-23 37 -36 49 -42 40 -11 -18 -10 -4 2 28 26 68 18 218 -20 365 -19 72 -28
269 -15 333 7 34 16 86 19 117 6 51 5 59 -19 88 -34 39 -47 39 -62 -1 -40
-115 -64 -173 -86 -211 -26 -43 -128 -147 -145 -147 -6 0 -1 27 9 61 27 86 18
235 -11 189 -6 -9 -10 -10 -10 -3 0 7 8 17 18 23 14 9 13 10 -7 4 l-24 -6 8
73 c11 94 13 123 15 184 1 28 4 42 7 32 2 -9 8 -15 13 -12 5 3 6 13 3 23 -5
14 -3 15 7 5 10 -10 14 -58 14 -203 1 -154 4 -190 15 -190 11 0 11 3 1 15 -14
17 -11 39 20 115 12 30 31 81 43 114 16 46 27 61 51 72 26 11 35 10 54 -2 27
-18 52 -5 52 27 0 11 4 19 9 19 5 0 11 9 14 19 4 18 3 18 -30 -2 -34 -20 -36
-20 -46 -2 -19 35 -139 145 -149 139 -7 -4 -8 -2 -4 4 4 7 1 12 -9 12 -8 0
-18 7 -21 15 -4 8 -12 15 -20 15 -8 0 -14 7 -14 17 0 9 -3 14 -6 10 -6 -6 -84
33 -111 55 -7 6 -13 7 -13 3 0 -5 -8 -2 -17 6 -30 24 -80 49 -86 43 -3 -4 -14
1 -23 10 -12 12 -20 14 -27 7 -16 -16 -27 -13 -20 6 4 11 3 14 -5 9 -7 -4 -12
-3 -12 3 0 5 -9 8 -20 6 -12 -2 -18 0 -14 6 3 6 -2 10 -12 8 -11 -1 -35 5 -54
14 -22 10 -39 12 -44 6 -15 -14 -36 -11 -30 5 4 9 -5 15 -25 18 -17 3 -31 0
-31 -4 0 -5 -7 -2 -16 6 -17 18 -39 22 -29 6 3 -5 1 -10 -4 -10 -6 0 -11 5
-11 11 0 6 -9 8 -22 4 -21 -6 -21 -6 -5 6 15 13 14 14 -20 17 -21 1 -41 -3
-46 -10 -6 -10 -7 -8 -4 3 4 13 -4 18 -36 23 -22 4 -47 12 -55 18 -10 9 -12 8
-10 -2 2 -7 -8 -14 -24 -17 -16 -2 -28 0 -28 5 0 5 -11 7 -25 4 -14 -2 -25 0
-25 6 0 5 -13 8 -30 6 -16 -2 -30 1 -30 6 0 6 -5 10 -11 10 -5 0 -8 -4 -5 -9
3 -5 -6 -8 -19 -8 -14 0 -25 5 -25 11 0 6 -5 4 -10 -4 -7 -11 -10 -11 -10 -2
0 7 -5 10 -10 7 -6 -4 -19 -1 -28 7 -15 12 -16 11 -3 -4 12 -16 10 -18 -22
-18 -20 0 -39 5 -42 10 -3 6 -12 10 -18 10 -7 0 -6 -4 3 -10 13 -8 12 -10 -2
-10 -10 0 -18 4 -18 8 0 4 -16 8 -35 8 -19 0 -35 -4 -35 -9 0 -4 -4 -6 -9 -2
-5 3 -12 1 -15 -3 -3 -5 -17 -8 -31 -7 -14 2 -27 -1 -30 -5 -3 -5 -14 -7 -25
-5 -11 2 -20 -1 -20 -6 0 -6 -4 -7 -10 -4 -5 3 -10 1 -10 -4 0 -6 -9 -11 -20
-11 -11 0 -20 -6 -20 -14 0 -8 -8 -13 -17 -12 -12 1 -17 -5 -15 -17 2 -11 -2
-17 -10 -15 -14 2 -58 -22 -58 -33 0 -9 49 -8 55 1 3 5 15 6 28 3 18 -4 20 -3
7 7 -13 10 -12 11 3 6 10 -3 26 0 37 6 24 15 38 3 23 -21 -10 -16 -8 -18 12
-16 18 2 24 -3 29 -26 3 -16 3 -44 -1 -62 -3 -18 -2 -29 3 -24 5 5 9 12 10 15
3 23 27 65 31 54 4 -10 8 -10 21 0 14 12 14 7 8 -41 -4 -29 -13 -63 -20 -75
-21 -32 -42 -176 -26 -176 12 0 59 132 74 205 14 69 21 84 52 112 20 18 40 30
45 27 5 -3 9 -1 9 4 0 14 51 34 95 38 22 1 51 5 65 9 46 11 82 8 91 -6 7 -12
9 -12 9 1 0 9 3 11 8 5 4 -5 18 -10 32 -11 72 -3 162 -13 167 -18 3 -3 12 2
20 12 8 9 12 11 8 5 -4 -9 3 -11 27 -8 28 4 29 3 8 -4 -23 -7 -22 -9 20 -20
25 -7 67 -21 93 -32 26 -11 53 -17 59 -13 7 4 8 3 4 -4 -4 -7 -1 -12 9 -12 9
0 14 -4 11 -8 -2 -4 5 -9 16 -9 12 -1 25 -7 29 -14 4 -7 22 -13 41 -14 46 -3
197 -76 232 -113 16 -17 33 -29 38 -26 4 3 15 -2 24 -11 14 -14 16 -37 11
-173 -7 -188 -14 -252 -32 -312 -7 -25 -19 -74 -26 -110 -8 -42 -19 -70 -32
-79 -14 -10 -17 -20 -12 -40 6 -25 6 -25 -9 -6 -15 19 -15 19 -16 -7 0 -17 -6
-28 -17 -30 -15 -3 -15 -6 6 -24 32 -31 15 -93 -22 -78 -25 9 -41 -31 -28 -69
6 -17 7 -35 3 -39 -12 -12 -43 2 -35 16 4 6 -1 4 -12 -4 -17 -14 -17 -13 -11
10 5 18 5 21 -3 10 -5 -8 -13 -11 -17 -8 -4 4 -18 -2 -33 -13 -22 -18 -26 -19
-29 -5 -2 9 4 26 12 38 18 25 21 68 6 68 -5 0 -10 8 -10 18 -1 20 -30 63 -30
43 0 -7 -14 1 -32 18 -17 17 -38 31 -45 31 -7 0 -13 4 -13 8 0 4 -18 19 -40
32 -47 30 -69 76 -40 85 10 3 21 13 25 22 5 15 4 15 -13 0 -20 -19 -42 -22
-42 -7 0 15 -37 31 -55 24 -9 -4 -14 -12 -12 -19 3 -6 -4 -17 -14 -24 -31 -18
-83 -3 -120 35 -38 39 -49 41 -72 16 -12 -13 -14 -21 -6 -29 19 -19 -33 -61
-72 -56 -20 2 -39 -3 -50 -13 -10 -9 -29 -16 -43 -16 -14 0 -36 -13 -52 -29
-15 -16 -35 -29 -44 -29 -23 0 -34 -100 -11 -108 17 -6 13 -38 -6 -58 -10 -10
-17 -19 -15 -21 1 -2 0 -2 -2 0 -2 1 -14 -7 -26 -18 l-23 -20 6 20 c4 11 2 27
-4 35 -9 13 -10 13 -6 -1 3 -10 -5 -26 -19 -40 -29 -27 -30 -43 -6 -61 10 -7
24 -27 31 -45 7 -18 16 -32 20 -31 19 2 27 -4 28 -24 1 -11 7 -24 13 -28 6 -4
8 -14 4 -23 -4 -11 0 -19 10 -23 9 -3 14 -10 11 -14 -2 -4 4 -15 15 -25 11
-10 20 -24 20 -31 0 -13 62 -56 77 -53 19 3 31 -2 36 -15 4 -10 1 -13 -9 -9
-7 3 -14 10 -14 16 0 6 -3 7 -7 4 -14 -14 50 -67 80 -67 30 0 30 0 12 20 -17
19 -15 19 34 -4 30 -13 61 -22 70 -19 13 5 12 2 -3 -16 -17 -19 -17 -21 -3
-15 13 5 16 2 11 -9 -3 -9 -20 -21 -37 -27 -32 -12 -32 -12 -9 -23 18 -8 22
-17 18 -38 -2 -16 1 -30 7 -33 7 -2 4 -5 -6 -5 -10 -1 -15 -5 -12 -11 4 -6 -5
-10 -19 -10 -14 0 -26 -4 -26 -10 0 -10 -50 8 -60 22 -3 4 -18 12 -34 18 -16
6 -26 13 -23 17 7 6 -61 73 -74 73 -4 0 -30 28 -58 63 -28 34 -56 67 -61 74
-6 7 -21 33 -35 59 -22 41 -25 60 -25 149 0 74 -4 106 -13 114 -8 6 -18 7 -22
3 -5 -4 -5 1 -2 11 4 11 1 17 -9 17 -9 0 -14 6 -11 13 6 18 -11 47 -29 47 -10
0 -14 6 -10 15 3 8 0 15 -6 15 -7 0 -7 4 0 13 13 15 -6 107 -23 113 -6 3 -10
18 -7 34 2 17 1 47 -3 67 l-7 38 -14 -25 c-10 -20 -13 -21 -14 -7 0 10 -4 16
-9 12 -5 -3 -12 -1 -16 5 -4 6 -11 8 -16 4 -6 -4 -6 -10 1 -19 8 -9 5 -11 -15
-7 -19 3 -25 0 -25 -13 0 -13 -6 -16 -20 -12 -17 4 -20 2 -16 -16 3 -12 3 -16
0 -9 -3 6 -11 9 -17 5 -14 -9 -19 -10 -51 -12 -14 0 -32 -8 -40 -17 -27 -26
-36 -5 -10 23 27 30 28 28 -7 36 -19 5 -33 1 -50 -14 -13 -12 -23 -25 -21 -30
1 -5 -1 -9 -5 -9 -13 0 -13 -59 -1 -66 6 -4 17 0 23 10 12 15 13 15 18 -4 3
-11 1 -20 -4 -20 -5 0 -9 -6 -9 -13 0 -20 31 -17 62 5 20 14 28 15 34 6 4 -6
2 -14 -4 -16 -15 -5 -16 -32 -1 -32 8 0 8 -4 1 -13 -6 -7 -12 -32 -13 -55 -2
-24 -9 -44 -17 -47 -8 -3 -11 -12 -8 -21 4 -11 1 -14 -12 -10 -15 5 -18 1 -18
-26 0 -18 -3 -45 -6 -60 -7 -29 14 -59 27 -38 3 5 15 10 26 10 11 0 22 6 25
14 3 8 12 17 19 20 11 4 12 0 6 -17 -4 -12 -6 -33 -5 -47 1 -17 -8 -33 -29
-52 l-30 -26 84 22 c46 13 95 26 109 30 25 6 -8 -11 -79 -43 -19 -8 -29 -17
-22 -19 6 -2 -35 -30 -93 -62 -111 -62 -205 -129 -268 -193 -40 -39 -68 -113
-68 -176 0 -20 -7 -61 -15 -91 -8 -30 -15 -73 -16 -95 -1 -23 -4 -31 -6 -20
-5 19 3 87 33 285 7 53 14 98 14 100 0 3 -30 4 -66 4 -65 -1 -67 -2 -103 -45
-21 -24 -50 -65 -65 -91 -25 -43 -56 -79 -56 -64 0 13 104 163 152 218 27 31
49 59 49 63 -1 3 2 5 7 6 14 1 32 21 27 29 -3 5 0 12 6 16 8 4 9 3 5 -4 -14
-23 0 -11 44 35 25 26 36 40 24 30 -11 -9 -23 -14 -27 -11 -3 3 -16 -3 -28
-15 -24 -22 -35 -26 -42 -13 -2 4 -2 1 -1 -5 2 -7 -1 -13 -6 -13 -6 0 -10 4
-10 9 0 5 -14 17 -32 25 -30 15 -32 15 -50 -4 -11 -11 -16 -25 -12 -32 4 -7 3
-8 -4 -4 -7 4 -20 -10 -33 -38 -12 -25 -25 -43 -30 -40 -5 3 -21 -20 -35 -51
-28 -58 -47 -69 -24 -14 12 28 12 33 -6 46 -33 24 -63 27 -85 7 -20 -18 -79
-100 -79 -110 0 -3 -9 -17 -19 -32 -18 -25 -24 -67 -35 -240 l-1 -23 -21 25
c-12 13 -25 22 -29 18 -4 -4 -4 5 0 21 9 33 -10 38 -21 5 -9 -31 -28 -48 -44
-38 -10 6 -9 9 1 12 11 4 10 9 -4 25 -9 11 -17 30 -17 42 0 24 -20 25 -28 1
-3 -7 0 -10 7 -6 7 5 9 1 5 -8 -3 -9 -9 -14 -13 -12 -3 2 -6 -20 -6 -50 0 -30
-3 -54 -7 -54 -4 0 -8 -7 -8 -16 0 -8 5 -12 10 -9 6 4 10 -5 10 -19 0 -17 -6
-26 -16 -26 -8 0 -12 4 -9 10 7 11 -10 47 -19 43 -12 -6 -26 -3 -25 5 3 18 -2
32 -12 32 -6 0 -9 -9 -6 -19 3 -13 1 -18 -8 -15 -10 4 -12 -5 -10 -33 2 -21 4
-40 5 -43 8 -23 4 -111 -6 -135 -7 -16 -16 -39 -20 -50 -6 -18 -7 -17 -15 10
-5 17 -14 71 -20 120 -6 50 -15 94 -20 100 -5 5 -9 23 -9 40 0 27 -4 31 -22
30 -13 -1 -28 -11 -34 -23 -6 -12 -14 -19 -17 -15 -4 3 -7 1 -7 -5 0 -7 -10
-12 -23 -12 -13 0 -37 -14 -54 -32 -30 -31 -93 -161 -108 -220 -4 -15 -13 -32
-21 -39 -16 -13 -19 -54 -4 -44 6 3 10 3 10 -2 0 -16 -15 -31 -35 -34 -44 -8
-75 -118 -101 -354 -5 -52 -9 -64 -14 -45 l-7 25 -11 -25 c-5 -14 -17 -32 -26
-39 -9 -7 -16 -22 -16 -32 0 -10 -4 -21 -10 -24 -5 -3 -10 -15 -10 -26 0 -10
-4 -19 -8 -19 -9 0 -48 -100 -44 -113 1 -5 -3 -5 -9 -1 -9 5 -10 2 -6 -9 4
-12 2 -14 -10 -10 -11 4 -14 2 -9 -5 4 -6 3 -19 -2 -29 -34 -65 -64 -152 -56
-164 3 -5 -2 -12 -11 -15 -8 -4 -15 -11 -14 -18 3 -24 -1 -37 -11 -31 -5 3
-10 2 -10 -4 0 -6 -14 -32 -30 -58 -16 -26 -30 -55 -30 -65 0 -10 -4 -18 -9
-18 -5 0 -14 -15 -21 -34 -6 -18 -20 -42 -30 -51 -11 -10 -34 -40 -51 -66 -30
-48 -31 -48 -13 -79 10 -16 22 -30 26 -30 4 0 8 -5 8 -11 0 -6 23 -47 50 -92
58 -95 62 -111 23 -103 -35 7 -45 1 -72 -49 -12 -22 -44 -68 -71 -103 -38 -48
-50 -71 -50 -98 0 -19 3 -34 8 -34 4 0 8 -19 9 -41 2 -23 7 -47 12 -53 5 -6
11 -22 13 -36 2 -20 10 -26 33 -28 17 -2 37 -6 45 -9 8 -3 19 -5 24 -4 5 1 6
-5 3 -14 -4 -8 -2 -15 4 -15 6 0 8 -7 5 -16 -5 -13 -3 -14 7 -6 18 16 35 2 39
-33 l3 -30 2400 -2 c1320 -1 2393 1 2384 5 -12 5 -14 13 -8 30 5 12 14 22 20
22 8 0 9 4 0 13 -10 13 -6 27 9 27 4 0 13 -14 20 -31 11 -26 11 -35 0 -53 -12
-18 -11 -19 2 -9 8 7 18 9 23 5 4 -4 5 10 2 31 -3 21 -24 65 -47 98 -23 34
-39 63 -36 67 3 3 6 1 6 -5 0 -6 15 -27 34 -47 27 -30 35 -34 40 -21 3 9 11
13 17 9 8 -4 9 -3 5 4 -4 7 -2 12 4 12 6 0 8 5 4 11 -4 7 -7 25 -6 41 0 22 -3
28 -13 24 -8 -3 -17 -1 -20 3 -2 5 16 14 40 20 58 15 145 95 145 134 0 21 -4
25 -20 22 -12 -2 -18 0 -15 6 4 5 11 6 17 3 8 -5 9 -1 5 10 -4 10 -7 26 -7 36
0 10 -7 25 -15 34 -9 8 -16 18 -15 21 2 33 -2 55 -8 51 -5 -3 -6 8 -4 25 2 16
0 35 -6 42 -12 14 0 41 18 43 21 3 22 4 10 19 -7 9 -10 25 -5 42 6 27 6 27
-14 9 -12 -11 -21 -27 -21 -36 0 -10 -9 -20 -19 -23 -15 -4 -19 0 -16 15 3 11
9 26 15 33 8 9 8 15 0 20 -5 3 -10 1 -10 -6 0 -7 -3 -10 -6 -6 -3 3 1 16 10
29 9 12 16 30 16 39 0 10 6 20 13 22 9 4 8 6 -2 6 -9 1 -10 5 -4 14 16 22 34
113 33 168 -1 30 1 65 5 79 12 44 10 154 -3 146 -5 -3 -8 25 -8 62 1 122 -8
283 -16 288 -4 3 -8 12 -8 20 0 8 5 12 10 9 6 -4 8 -11 5 -16 -4 -5 -1 -9 4
-9 18 0 26 5 24 12 -2 5 1 8 6 8 5 0 11 -9 14 -21 4 -15 -1 -22 -19 -29 -28
-11 -29 -16 -10 -36 25 -24 71 -15 71 15 0 19 16 23 35 11 13 -9 12 -12 -4
-25 -20 -15 -18 -17 33 -29 26 -5 61 9 74 30 8 15 37 19 37 7 0 -5 -14 -21
-30 -37 -28 -27 -34 -29 -115 -29 -49 0 -89 -5 -94 -11 -5 -6 -6 -27 -2 -46 6
-29 11 -34 35 -35 16 0 31 -6 33 -13 3 -7 -1 -10 -10 -6 -35 13 -65 -89 -34
-115 14 -11 98 -9 127 3 20 8 42 -38 27 -53 -7 -7 -8 -11 -1 -11 6 0 14 3 18
7 4 4 21 8 38 9 39 2 51 16 52 57 1 30 4 34 28 35 15 0 37 6 50 13 13 7 32 13
43 13 15 1 20 8 20 29 1 16 7 32 15 37 20 12 11 18 -35 25 -36 6 -46 2 -94
-34 -30 -23 -58 -41 -62 -41 -5 0 -6 -7 -3 -15 4 -8 2 -15 -2 -16 -5 -1 -20
-2 -34 -3 -14 -2 -35 -6 -48 -10 -16 -5 -24 -3 -28 9 -8 21 -7 22 61 39 40 11
68 25 84 43 33 38 11 41 -42 5 -40 -28 -63 -36 -95 -33 -23 2 -2 21 24 21 13
0 24 4 24 9 0 5 -9 7 -20 4 -14 -4 -20 0 -20 11 0 17 7 19 58 16 23 -1 42 5
57 20 16 15 30 20 44 15 23 -7 29 10 7 18 -21 8 -13 53 14 82 21 22 22 55 2
55 -5 0 2 23 16 50 21 42 33 54 74 72 47 20 48 21 28 35 -19 13 -23 13 -39 -1
-10 -9 -24 -16 -32 -16 -8 0 -20 -5 -27 -12 -9 -9 -15 -9 -24 0 -10 10 -10 18
3 40 14 26 19 27 92 28 53 1 83 7 95 17 25 21 79 47 110 52 15 3 40 8 56 11
19 5 31 2 37 -7 7 -11 12 -10 27 7 27 33 94 67 130 66 17 -1 32 3 32 8 0 5 17
14 39 20 25 6 41 17 44 30 3 13 14 20 30 20 13 0 36 9 50 20 14 11 30 20 36
20 6 0 11 5 11 10 0 7 -6 7 -19 0 -30 -15 -44 -12 -38 9 3 13 0 18 -8 15 -7
-3 -16 0 -20 6 -6 9 3 10 33 5 25 -4 42 -2 47 4 3 6 15 11 26 11 10 0 19 6 19
14 0 7 15 17 33 21 22 5 26 9 15 12 -10 2 -18 8 -18 13 0 5 -8 7 -17 3 -14 -5
-12 0 6 20 28 30 56 35 65 11 4 -11 2 -15 -7 -11 -8 3 -20 1 -28 -4 -11 -7
-11 -9 3 -9 9 0 18 -5 20 -11 3 -8 27 -4 78 15 40 14 88 26 106 26 18 0 35 6
37 13 3 6 6 2 6 -11 1 -13 -3 -20 -9 -17 -12 7 -52 -13 -63 -31 -4 -8 -17 -14
-27 -14 -10 0 -22 -5 -25 -10 -4 -6 -22 -17 -41 -25 -23 -10 -34 -20 -34 -35
0 -18 -5 -21 -32 -18 -28 3 -32 0 -30 -17 5 -28 8 -29 34 -11 31 22 47 20 41
-4 -6 -24 -66 -71 -79 -62 -17 13 -33 60 -27 82 4 17 2 21 -8 18 -8 -3 -14
-16 -14 -29 0 -16 -7 -25 -20 -27 -30 -6 -43 -22 -17 -22 15 0 20 -5 16 -15
-4 -8 -13 -15 -20 -15 -8 0 -17 -7 -20 -15 -4 -8 -12 -15 -20 -15 -23 0 -16
-29 12 -55 15 -14 25 -25 23 -26 -2 0 -31 -2 -64 -4 -33 -3 -70 -7 -82 -10
-29 -7 -31 18 -3 31 18 8 19 11 7 28 -14 19 -15 19 -49 -2 -20 -12 -43 -22
-52 -22 -22 0 -32 -28 -17 -51 10 -17 8 -21 -12 -28 -35 -14 -85 -101 -58
-101 6 0 11 7 11 15 0 8 6 15 13 15 6 0 19 15 27 33 16 34 46 44 44 14 -2 -22
4 -22 57 8 86 47 108 57 129 53 27 -4 27 -22 -1 -26 -12 -2 -29 -12 -38 -23
-9 -11 -58 -34 -110 -53 -72 -25 -97 -39 -103 -56 -5 -14 -4 -28 3 -36 6 -8 8
-25 5 -39 -4 -16 -2 -25 5 -25 8 0 8 -4 -1 -15 -22 -26 -39 -17 -46 23 -6 37
-8 39 -40 37 -19 -1 -43 -10 -54 -20 -10 -9 -25 -15 -32 -12 -7 2 -20 0 -30
-4 -11 -6 -18 -4 -22 6 -6 17 -39 20 -66 5 -15 -8 -18 -17 -14 -38 l6 -27 -71
2 c-42 1 -73 -3 -77 -9 -5 -7 2 -9 20 -4 14 3 26 2 26 -2 0 -5 20 -8 45 -6 35
3 43 1 38 -11 -3 -8 -15 -15 -27 -15 -11 -1 -31 -9 -44 -20 -24 -20 -22 -40 4
-40 8 0 14 -5 14 -10 0 -6 11 -8 25 -4 25 6 35 -9 15 -21 -8 -5 -7 -12 1 -22
10 -12 10 -16 -2 -24 -8 -5 -17 -9 -21 -9 -16 0 -7 -30 13 -44 12 -8 19 -19
15 -24 -3 -5 5 -15 19 -22 20 -11 26 -10 40 4 15 15 15 16 -4 16 -23 0 -28 24
-8 37 6 4 23 6 36 4 13 -1 21 1 17 7 -7 11 36 42 59 42 8 0 15 9 15 20 0 27
42 36 92 19 37 -12 42 -11 54 5 12 17 15 17 28 3 9 -8 20 -17 25 -19 4 -1 6
-17 4 -34 -4 -26 -11 -33 -35 -38 -37 -7 -51 0 -43 24 12 38 -52 33 -88 -8
-16 -17 -16 -20 -2 -25 23 -10 18 -31 -15 -60 -30 -27 -60 -36 -60 -17 0 18
-33 10 -67 -16 -26 -20 -31 -29 -23 -39 8 -10 7 -16 -7 -23 -10 -6 -18 -19
-18 -29 0 -10 -8 -19 -17 -21 -12 -2 -16 1 -12 11 7 19 -9 29 -30 21 -15 -6
-15 -8 1 -20 14 -10 15 -13 4 -14 -28 0 -136 24 -142 33 -5 7 -70 -41 -157
-114 -7 -6 -32 -12 -55 -12 -31 -2 -43 -6 -45 -19 -3 -14 3 -18 22 -18 14 0
26 -6 26 -12 0 -7 3 -23 6 -35 5 -18 1 -25 -18 -32 -27 -10 -53 -78 -43 -111
11 -34 23 -22 30 31 7 53 52 119 81 119 8 0 14 7 14 15 0 8 15 24 33 35 27 17
25 26 -5 21 -15 -2 -8 20 7 25 8 4 15 12 15 20 0 8 10 14 22 14 12 0 29 7 38
15 10 9 25 13 34 9 21 -8 20 -21 -2 -28 -14 -5 -17 -14 -14 -35 3 -23 -1 -30
-25 -40 -38 -16 -83 -57 -83 -76 0 -8 3 -15 8 -15 12 1 52 38 52 49 0 6 7 11
15 11 8 0 15 -7 15 -15 0 -10 10 -15 30 -15 17 0 30 -4 30 -10 0 -5 -7 -10
-15 -10 -8 0 -15 -6 -15 -14 0 -7 -13 -19 -30 -26 -16 -7 -30 -19 -30 -27 0
-11 -7 -13 -28 -9 -16 4 -35 1 -46 -7 -17 -13 -16 -14 12 -9 39 5 43 -14 6
-28 -35 -14 -78 8 -61 31 7 8 21 18 31 22 27 10 12 21 -19 13 -15 -4 -25 -13
-25 -25 0 -10 -7 -24 -15 -31 -11 -9 -13 -16 -5 -24 17 -17 11 -34 -21 -53
l-30 -18 2 -147 c2 -119 5 -145 16 -137 9 8 36 8 93 0 80 -11 104 -8 127 15 9
8 34 11 75 8 74 -6 64 -6 153 2 39 3 122 7 185 8 63 2 136 7 161 11 30 4 67 2
105 -8 80 -20 262 -21 320 -1 25 8 73 15 107 15 34 -1 109 0 167 2 93 2 115 0
190 -26 47 -15 100 -37 118 -47 18 -11 43 -22 55 -24 12 -2 36 -11 52 -20 17
-9 41 -16 54 -16 12 0 44 -11 70 -25 25 -13 58 -27 73 -30 14 -3 48 -25 74
-50 27 -24 60 -48 74 -53 14 -5 57 -22 96 -36 58 -22 81 -25 125 -20 51 6 64
2 189 -51 128 -55 173 -65 219 -50 9 3 48 -3 86 -12 63 -16 160 -18 1008 -20
l937 -3 0 2599 0 2598 -25 -5 c-15 -2 -25 0 -25 7 0 6 11 11 25 11 22 0 25 4
25 40 0 31 -3 38 -15 34 -8 -4 -15 -1 -15 5 0 7 7 14 15 17 18 7 19 28 2 42
-8 7 -17 7 -30 -2z m-2557 -793 c0 -2 -16 -11 -36 -19 -51 -21 -34 -30 19 -10
40 15 47 15 83 0 36 -15 37 -17 19 -30 -10 -8 -13 -14 -7 -14 7 0 12 -4 12
-10 0 -5 -7 -10 -16 -10 -9 0 -27 -11 -40 -25 -23 -25 -23 -25 -4 -38 23 -14
26 -27 6 -27 -18 0 -60 -39 -64 -60 -2 -8 -9 -18 -15 -22 -8 -5 -6 -8 6 -8 33
0 11 -25 -23 -26 -18 0 -38 -7 -45 -17 -7 -9 -18 -17 -26 -17 -16 -1 -57 -30
-43 -31 5 -1 20 -2 34 -2 15 -1 25 -8 25 -17 0 -9 -10 -15 -25 -16 -14 -1 -38
-5 -53 -9 -26 -7 -27 -9 -12 -24 22 -25 19 -29 -21 -37 -23 -4 -38 -13 -41
-24 -3 -10 -29 -27 -63 -41 -32 -13 -57 -27 -54 -31 5 -8 60 0 87 14 13 7 17
5 17 -11 0 -11 -9 -23 -21 -26 -11 -4 -42 -16 -67 -28 -26 -12 -54 -20 -62
-19 -21 2 -47 -20 -51 -43 -6 -27 -105 -60 -155 -51 -35 7 -36 8 -18 27 10 11
24 17 31 15 7 -3 15 -1 18 4 4 6 15 10 26 10 22 0 23 8 9 44 -9 25 -4 32 23
27 16 -3 67 41 61 51 -4 7 -9 6 -14 -2 -4 -7 -13 -9 -19 -6 -6 4 -11 3 -11 -1
0 -5 -8 -9 -18 -9 -25 0 -25 33 0 39 19 5 19 7 5 21 -20 20 -33 20 -41 0 -4
-11 -14 -14 -35 -9 -21 4 -30 2 -34 -9 -4 -9 -14 -16 -24 -16 -17 1 -17 2 1
15 24 18 21 21 -26 30 -24 5 -38 3 -38 -3 0 -6 6 -12 12 -14 8 -3 2 -14 -17
-30 -23 -20 -34 -24 -48 -16 -15 8 -20 5 -24 -11 -5 -18 -33 -31 -33 -16 0 19
35 55 49 50 9 -2 23 0 31 5 12 8 11 11 -8 16 l-23 7 22 11 c12 6 24 17 27 24
5 15 -51 16 -80 1 -19 -10 -20 -9 -14 15 5 22 3 26 -14 26 -38 0 -58 -17 -53
-45 3 -15 1 -25 -6 -25 -6 0 -11 9 -11 21 0 11 -4 17 -10 14 -5 -3 -10 -2 -10
3 0 17 70 72 112 89 30 12 38 20 35 34 -4 16 1 19 37 19 23 0 59 9 81 20 22
11 45 20 51 20 7 0 19 6 26 13 19 19 91 38 101 28 10 -10 -42 -41 -68 -41 -9
0 -15 -6 -12 -12 2 -7 13 -13 25 -13 12 0 27 -6 33 -12 15 -15 46 -1 71 30 15
20 20 20 50 9 19 -6 45 -12 57 -12 15 0 21 -5 18 -13 -3 -9 8 -13 40 -13 37
-1 46 2 55 22 6 12 27 30 47 39 90 40 155 79 139 82 -9 2 -36 -6 -59 -18 -39
-20 -44 -20 -55 -5 -8 11 -13 13 -16 5 -5 -14 -88 -21 -88 -8 0 22 50 59 80
59 18 0 30 5 30 13 0 9 -10 12 -32 10 -32 -4 -32 -3 -10 9 31 19 55 55 42 63
-17 11 1 27 24 21 26 -6 57 10 40 22 -7 4 12 8 42 8 30 1 54 0 54 -3z m-425
-75 c4 -4 20 -4 36 -1 15 3 41 -1 58 -8 29 -13 29 -13 9 -31 -11 -10 -38 -26
-59 -35 -23 -11 -42 -27 -45 -40 -3 -13 -13 -23 -21 -23 -8 0 -11 5 -7 12 4 7
8 23 9 36 0 17 -4 22 -15 19 -9 -2 -24 1 -34 8 -16 12 -16 14 3 20 23 7 29 25
9 25 -7 0 -19 -4 -27 -9 -9 -6 -23 -5 -36 1 -18 8 -29 6 -54 -13 -41 -30 -62
-14 -29 22 21 22 30 24 110 24 47 0 89 -3 93 -7z m725 -696 c0 -4 -15 -23 -33
-40 -27 -26 -33 -39 -29 -62 3 -19 0 -30 -8 -30 -7 0 -10 7 -7 15 10 24 -6 23
-57 -4 -51 -26 -71 -51 -42 -51 9 0 16 -5 16 -11 0 -6 -8 -8 -17 -5 -10 3 -29
-1 -43 -9 -24 -13 -24 -14 -5 -20 11 -4 27 -10 36 -15 38 -20 98 -21 155 -1
32 11 62 17 67 14 11 -7 -12 -33 -29 -33 -8 0 -14 -4 -14 -9 0 -5 -8 -7 -18
-4 -10 2 -24 -2 -31 -10 -6 -8 -21 -13 -31 -10 -11 3 -20 0 -20 -6 0 -6 5 -11
10 -11 6 0 10 -7 10 -15 0 -8 5 -15 10 -15 19 0 10 -37 -12 -48 l-23 -11 22 0
c47 -2 100 -41 56 -41 -12 0 -7 -7 15 -21 18 -12 32 -23 30 -24 -2 -2 -30 2
-62 8 l-59 11 -31 -35 c-32 -36 -77 -69 -96 -69 -19 0 -10 22 21 51 18 16 29
32 26 35 -9 9 -45 -19 -56 -43 -11 -24 -37 -31 -43 -11 -3 8 -12 4 -26 -10
-23 -23 -29 -42 -12 -42 6 0 10 5 10 10 0 6 7 10 15 10 12 0 9 -10 -12 -42
-19 -29 -24 -43 -15 -46 6 -2 12 -14 12 -26 0 -25 -32 -61 -44 -49 -4 4 -4 -1
0 -11 5 -14 3 -17 -7 -14 -8 3 -26 -4 -42 -14 -24 -18 -28 -18 -33 -3 -4 9 -2
21 5 28 6 6 11 23 11 38 0 15 7 32 15 39 8 7 12 17 8 24 -14 21 -12 40 7 64
13 16 17 33 13 52 -5 27 -1 31 40 51 47 23 83 20 73 -6 -8 -21 19 -19 41 4 10
10 30 26 45 36 38 24 25 38 -27 30 -41 -6 -68 6 -45 20 8 5 7 11 -1 21 -14 17
-4 31 26 36 16 2 20 -2 18 -23 -1 -22 3 -25 30 -26 18 -1 38 -3 46 -5 10 -2
14 7 13 30 -1 69 0 69 -36 29 -33 -37 -34 -38 -38 -13 -4 17 -1 23 9 19 8 -3
13 2 13 12 0 13 -4 15 -17 9 -10 -5 -50 -9 -89 -9 -68 0 -73 -2 -113 -37 -22
-21 -44 -38 -49 -38 -4 0 1 7 11 14 20 16 22 36 3 36 -19 0 -76 -55 -76 -73 0
-16 -10 -20 -67 -32 -20 -4 -33 -3 -33 4 0 15 41 81 51 81 13 0 143 119 153
141 5 10 16 19 25 19 14 1 13 3 -3 15 -21 16 -13 35 14 35 19 0 57 15 129 49
18 9 40 25 50 37 22 28 47 36 61 18 18 -21 32 -18 70 16 34 28 60 38 60 22z
m-1110 -178 c0 -16 -37 -49 -52 -46 -21 4 -34 -18 -17 -29 11 -8 10 -12 -6
-25 -17 -12 -18 -16 -5 -24 12 -8 11 -13 -8 -33 -12 -13 -22 -28 -22 -34 0
-12 -50 -24 -63 -16 -5 3 -4 10 2 16 19 19 12 27 -14 15 -15 -7 -24 -17 -21
-25 6 -16 9 -15 -31 -4 -21 6 -35 6 -39 0 -6 -10 -80 -59 -89 -59 -3 0 -5 5
-5 11 0 16 24 33 105 74 84 43 134 83 138 110 5 36 18 47 52 43 24 -3 36 1 44
14 11 17 31 25 31 12z m-3880 -81 c22 -16 23 -16 17 1 -6 15 -2 16 41 10 26
-4 58 -14 70 -22 16 -11 50 -16 103 -16 43 -1 79 -4 79 -7 0 -3 26 -4 57 -1
55 5 57 4 43 -13 -15 -18 -14 -18 16 0 31 18 32 18 63 -4 34 -25 38 -36 16
-45 -8 -3 -15 -12 -15 -21 0 -8 -4 -15 -10 -15 -5 0 -10 -12 -10 -26 0 -14 -4
-23 -10 -19 -5 3 -10 -1 -10 -10 0 -9 -6 -15 -13 -13 -17 4 -67 -47 -67 -68 0
-9 -6 -14 -13 -11 -20 7 -38 -18 -24 -33 9 -10 9 -11 0 -6 -6 3 -15 1 -18 -4
-5 -7 -11 -5 -19 6 -12 15 -14 14 -21 -12 l-8 -29 -7 30 -7 30 -11 -27 c-6
-14 -17 -30 -24 -34 -10 -6 -10 -4 1 9 8 10 11 20 8 23 -3 3 -12 -3 -19 -15
-16 -27 -32 -27 -25 -1 3 11 1 23 -4 26 -5 3 -9 -7 -10 -23 0 -15 -3 -22 -6
-15 -2 6 -9 10 -14 6 -5 -3 -5 -12 0 -23 7 -13 6 -18 -4 -18 -8 0 -14 3 -13 6
3 26 -3 32 -17 17 -8 -8 -15 -21 -15 -28 0 -24 -20 15 -21 42 0 23 -1 23 -8 5
-5 -11 -6 -27 -3 -35 3 -8 2 -12 -2 -9 -12 11 -25 69 -15 69 17 0 9 32 -13 51
-14 13 -17 19 -7 19 10 1 9 4 -4 11 -9 5 -23 7 -30 3 -8 -5 -7 -2 2 9 12 15
11 17 -3 17 -10 0 -14 5 -11 10 3 6 -1 10 -9 10 -9 0 -15 3 -14 8 3 14 -14 42
-23 36 -5 -3 -9 11 -9 31 0 22 -6 38 -15 41 -24 9 -18 33 16 65 36 34 37 34
69 12z m3210 -323 c0 -25 26 -26 52 -3 10 9 21 13 24 10 8 -7 -34 -67 -47 -67
-13 0 -11 -12 6 -34 12 -16 17 -17 30 -6 8 7 15 19 15 26 0 23 37 53 76 60 46
8 40 -4 -21 -42 -24 -16 -50 -39 -57 -52 -7 -13 -19 -27 -28 -32 -23 -13 -110
0 -110 16 0 18 -27 18 -37 0 -4 -7 -19 -16 -33 -19 -14 -3 -35 -9 -47 -12 -19
-6 -23 -4 -23 14 0 15 -7 21 -22 22 -38 2 -62 -2 -76 -13 -16 -14 -24 -6 -16
15 3 9 22 19 42 22 21 3 56 11 80 19 36 11 42 11 42 0 0 -11 18 -14 73 -14 76
0 93 5 78 24 -14 18 -23 86 -11 86 5 0 10 -9 10 -20z m-3700 -70 c-23 -27 -55
-58 -70 -67 -16 -9 -26 -21 -23 -27 3 -6 3 -8 -2 -4 -6 6 -48 -32 -84 -77 -4
-5 2 -18 13 -28 12 -10 14 -15 6 -11 -12 7 -13 5 -3 -8 7 -8 9 -19 5 -23 -4
-5 -1 -5 6 -1 8 5 14 -3 19 -26 4 -18 6 -37 4 -43 -1 -5 1 -7 5 -3 4 4 13 0
21 -10 11 -15 14 -15 26 -2 15 18 37 24 37 10 0 -13 27 -13 35 0 3 6 -4 14
-17 19 -13 6 -17 10 -9 10 8 1 19 9 26 18 11 15 12 14 10 -10 -2 -15 1 -27 6
-27 6 0 7 -4 4 -10 -4 -6 2 -7 16 -1 27 9 37 31 15 31 -8 0 -18 5 -22 12 -4 7
-3 8 5 4 6 -4 14 0 18 9 3 10 0 21 -7 25 -11 7 -11 11 -1 24 16 19 45 21 38 4
-2 -7 -12 -12 -22 -10 -10 2 -14 -1 -10 -8 8 -12 46 -3 57 13 4 7 -6 17 -23
24 -32 13 -36 25 -14 43 8 7 12 16 9 21 -3 5 0 9 6 9 6 0 8 5 5 10 -7 12 34
90 48 90 5 0 4 -7 -3 -15 -9 -11 -9 -22 -2 -44 6 -16 8 -32 5 -35 -4 -3 -1 -6
6 -6 7 0 9 -4 6 -10 -3 -5 -1 -10 6 -10 6 0 1 -9 -12 -20 l-24 -19 23 -1 c25
0 29 -12 7 -30 -19 -15 -9 -33 14 -25 11 3 18 0 18 -9 0 -8 -6 -12 -12 -9 -13
4 -30 -26 -20 -36 3 -3 14 0 25 6 14 10 19 9 24 -3 4 -9 -3 -18 -19 -24 -14
-5 -25 -16 -25 -25 0 -18 12 -19 29 -2 10 10 11 8 5 -7 -5 -13 -4 -17 4 -12
17 10 15 -9 -3 -24 -8 -7 -13 -15 -11 -19 3 -4 -29 -17 -70 -30 -41 -13 -74
-27 -74 -31 0 -5 15 -3 33 4 56 24 77 28 77 17 0 -6 -4 -11 -9 -11 -5 0 -22
-5 -38 -12 -15 -6 -30 -12 -33 -13 -51 -17 -123 -65 -213 -143 -26 -22 -56
-43 -67 -47 -11 -3 -20 -11 -20 -16 0 -5 -6 -9 -13 -9 -8 0 -22 -9 -32 -20
-10 -11 -27 -20 -39 -20 -13 0 8 19 60 53 44 28 107 75 140 103 32 28 77 63
99 77 22 15 35 27 30 27 -6 0 -32 -17 -60 -38 -69 -52 -214 -156 -247 -177
-53 -33 -28 -8 35 35 34 24 96 69 137 101 87 67 215 139 247 139 28 0 27 37
-1 52 -16 9 -18 7 -13 -10 6 -26 -11 -41 -59 -52 -31 -7 -37 -6 -41 11 -6 20
-28 26 -38 10 -3 -6 3 -14 12 -20 16 -9 16 -10 -4 -11 -12 0 -24 -6 -27 -12
-3 -7 -3 5 1 27 6 37 5 39 -11 26 -9 -8 -19 -11 -23 -7 -3 3 -1 6 5 6 7 0 12
7 12 15 0 8 -7 15 -15 15 -8 0 -15 -9 -15 -20 0 -11 -4 -20 -10 -20 -5 0 -10
-8 -11 -17 0 -10 -3 -13 -5 -6 -3 7 0 21 6 33 9 16 8 21 -5 26 -8 3 -15 13
-15 21 0 20 -24 10 -29 -12 -2 -12 2 -16 11 -12 8 3 21 1 29 -3 11 -7 10 -10
-4 -16 -10 -3 -21 -4 -24 -1 -3 4 -15 2 -27 -4 -19 -9 -19 -9 -4 4 22 18 15
26 -17 19 -24 -4 -36 -32 -15 -32 6 0 10 -5 10 -11 0 -9 -4 -9 -14 0 -17 15
-64 10 -62 -6 4 -24 18 -28 32 -9 10 14 14 16 14 5 0 -25 -16 -40 -36 -33 -16
5 -16 4 -4 -5 13 -10 13 -13 -4 -26 -10 -8 -22 -12 -27 -10 -10 7 -22 -32 -14
-45 3 -6 -1 -7 -10 -4 -9 4 -14 13 -11 21 4 11 1 11 -15 3 -11 -6 -19 -16 -18
-23 3 -22 -1 -40 -7 -34 -12 11 -16 77 -5 77 6 0 11 7 11 15 0 8 4 15 9 15 5
0 7 -10 4 -22 -3 -13 -3 -20 1 -17 4 4 8 20 9 35 2 19 10 32 24 39 12 5 25 22
28 37 4 15 11 30 16 34 5 3 8 2 7 -3 -2 -4 2 -9 7 -10 6 -2 10 6 10 16 1 10 7
26 14 35 12 14 11 16 -5 10 -16 -5 -16 -3 3 14 12 11 19 22 16 26 -4 3 0 6 7
6 11 0 11 3 3 11 -19 19 28 96 99 165 69 66 158 144 165 144 3 0 -14 -22 -37
-50z m4642 -23 c-12 -12 -25 -34 -31 -49 -9 -24 -6 -30 25 -57 19 -17 46 -31
59 -31 14 0 25 -4 25 -9 0 -6 14 -11 32 -13 42 -4 46 -23 7 -37 -41 -14 -39
-14 -39 8 0 25 -20 38 -31 20 -4 -8 -14 -14 -21 -15 -7 0 -23 -2 -36 -2 -13
-1 -20 -6 -17 -12 3 -5 -3 -10 -14 -10 -14 0 -19 5 -15 15 4 10 0 15 -15 15
-13 0 -23 -8 -26 -23 -8 -28 -61 -52 -69 -31 -3 8 -3 21 0 29 8 21 -9 19 -39
-5 -15 -12 -44 -22 -69 -23 -24 -2 -49 -7 -56 -11 -17 -10 -18 -8 -26 30 -5
22 -2 35 9 44 13 11 14 10 9 -4 -3 -9 -1 -16 5 -16 14 0 151 109 151 120 0 4
25 20 57 36 31 16 58 37 61 46 5 20 39 28 65 15 18 -8 18 -10 -1 -30z m-172 3
c0 -13 -37 -32 -80 -41 -19 -4 -53 -13 -75 -19 -22 -6 -60 -15 -84 -21 -24 -5
-50 -14 -58 -21 -11 -9 -16 -9 -23 3 -8 12 -13 12 -32 0 -12 -7 -46 -13 -75
-13 -30 0 -67 -4 -84 -8 -18 -6 -53 -5 -87 1 -52 10 -57 9 -72 -11 -9 -12 -23
-21 -31 -19 -8 1 -33 -3 -56 -11 -37 -11 -43 -17 -43 -42 0 -15 -1 -31 -2 -34
-5 -11 70 -15 77 -4 3 5 11 10 17 10 7 0 7 -4 -1 -13 -6 -8 -8 -17 -4 -21 4
-4 0 -4 -8 -1 -9 3 -28 1 -43 -4 -21 -9 -28 -8 -32 4 -8 21 -97 21 -114 0 -18
-21 -39 -19 -37 5 1 11 13 24 29 31 15 6 28 15 28 20 0 13 -64 11 -76 -1 -8
-8 -20 -7 -39 0 -25 9 -36 7 -78 -15 -26 -15 -51 -25 -54 -22 -3 3 13 15 36
27 48 24 54 49 14 52 -80 5 -92 4 -97 -8 -6 -16 -46 -19 -46 -4 0 6 -11 10
-24 10 -19 0 -23 4 -19 21 4 13 33 34 84 60 86 43 98 46 79 24 -7 -8 -21 -15
-31 -15 -11 0 -19 -4 -19 -9 0 -13 82 -25 109 -16 12 4 21 2 21 -4 0 -6 -4
-11 -10 -11 -24 0 -7 -16 30 -28 49 -15 97 -14 174 2 44 9 61 17 67 33 4 12
35 40 68 62 51 35 64 39 85 31 18 -6 33 -5 56 6 37 19 92 12 119 -15 16 -16
25 -16 100 -6 59 9 93 9 117 2 33 -10 90 0 137 24 10 5 21 8 25 5 5 -3 14 -1
22 5 20 12 40 11 40 -1z m376 -236 c-6 -24 7 -33 19 -14 10 16 86 11 125 -8
44 -22 48 -55 8 -60 -16 -2 -28 -6 -29 -10 0 -4 -2 -15 -4 -24 -2 -13 3 -18
18 -18 20 -1 21 -2 5 -14 -10 -7 -18 -18 -18 -25 0 -7 -9 -9 -25 -5 -19 5 -30
0 -46 -17 -11 -13 -18 -18 -14 -11 8 16 0 15 -17 -2 -8 -7 -24 -17 -37 -21
-21 -6 -22 -5 -12 14 13 24 6 26 -35 11 -21 -8 -29 -8 -36 2 -6 10 -8 9 -8 -2
0 -17 -49 -50 -74 -50 -9 0 -16 -4 -16 -10 0 -5 -11 -12 -25 -16 -14 -3 -25
-10 -25 -14 0 -5 -10 -10 -22 -12 -13 -2 -22 -9 -20 -16 1 -6 -1 -11 -5 -10
-5 0 -25 -6 -45 -15 -44 -20 -48 -20 -48 -7 0 6 7 10 16 10 13 0 14 3 5 14 -8
10 -20 12 -44 6 -140 -36 -193 -52 -200 -59 -5 -5 13 -12 40 -16 l48 -7 -60
-20 c-33 -11 -66 -20 -74 -21 -18 -1 -63 -46 -56 -57 6 -9 -36 -22 -107 -34
-23 -4 -45 -17 -57 -32 -23 -30 -41 -24 -41 13 0 16 7 27 20 30 11 3 20 11 20
18 0 6 19 17 43 24 23 7 57 19 75 27 18 8 42 14 53 14 11 0 22 8 26 18 3 9 20
35 37 57 17 21 31 44 31 50 0 5 9 10 20 10 11 0 21 8 23 19 3 14 0 17 -12 13
-9 -4 -16 -3 -16 2 0 4 19 14 42 20 38 12 44 11 58 -7 29 -35 126 -7 253 72
26 16 47 33 47 37 0 4 12 9 27 11 22 2 33 13 50 47 12 25 29 49 38 54 15 8 15
11 0 33 -16 25 -16 25 25 36 8 3 25 2 38 0 19 -4 22 -9 18 -28z m-3666 -46
c-17 -17 -37 -48 -47 -69 -9 -21 -20 -36 -25 -33 -4 3 -8 -3 -8 -13 0 -11 -7
-28 -16 -39 -8 -10 -12 -13 -8 -5 5 9 3 12 -5 7 -6 -4 -9 -16 -6 -27 4 -11 2
-19 -4 -19 -6 0 -11 -7 -11 -17 0 -19 -70 -147 -76 -140 -3 2 5 21 17 41 30
52 17 45 -17 -9 -29 -46 -38 -53 -49 -35 -3 6 1 10 10 10 9 0 14 4 11 9 -9 14
5 42 17 34 6 -4 8 0 4 10 -3 10 -2 17 3 17 5 0 7 7 4 15 -5 12 -2 14 12 8 17
-6 18 -5 4 12 -14 17 -13 18 2 12 13 -4 15 -2 11 10 -5 12 -3 14 7 8 10 -6 12
-4 7 8 -4 12 -1 17 11 17 13 0 14 2 4 8 -17 11 -4 45 15 38 8 -3 12 -2 8 3 -9
15 6 41 24 41 14 0 14 2 1 10 -13 8 -13 10 2 10 11 0 15 5 12 15 -5 12 -2 14
12 8 17 -6 18 -5 4 12 -14 17 -13 18 4 12 13 -5 17 -3 13 7 -4 10 -1 13 9 9
10 -4 12 0 8 11 -8 21 36 58 53 44 9 -7 4 -17 -17 -40z m2294 37 c-4 -8 -12
-15 -19 -15 -8 0 -17 -5 -21 -12 -5 -8 5 -9 34 -5 23 3 42 1 42 -4 0 -5 -7 -9
-15 -9 -9 0 -18 -7 -21 -15 -4 -8 -14 -15 -24 -15 -25 0 -50 -10 -50 -21 0 -4
7 -6 16 -2 21 8 64 -17 64 -38 0 -11 -11 -19 -32 -23 -20 -4 -56 -27 -88 -56
-30 -27 -59 -48 -65 -46 -5 2 -18 -1 -29 -6 -14 -8 -16 -12 -6 -18 9 -6 0 -15
-30 -29 -52 -25 -50 -25 -50 -6 0 7 8 18 17 24 10 5 14 13 10 17 -4 4 -20 1
-35 -8 -15 -8 -43 -21 -62 -27 -25 -8 -39 -20 -47 -41 -6 -17 -18 -30 -27 -30
-9 0 -16 -4 -16 -8 0 -5 -9 -19 -20 -32 -11 -13 -23 -41 -26 -62 -5 -29 -11
-38 -26 -38 -10 0 -32 -7 -49 -15 -16 -9 -33 -14 -38 -11 -14 9 -51 -24 -51
-45 0 -12 4 -17 11 -14 6 4 8 13 5 21 -4 11 -2 12 14 1 34 -21 21 -38 -30 -39
-17 -1 -35 -7 -41 -15 -18 -21 -39 -15 -50 13 -10 28 -4 64 12 64 5 0 9 7 9
16 0 13 -5 12 -30 -6 -33 -23 -65 -23 -65 0 0 10 11 15 35 15 37 0 52 23 31
49 -13 16 -4 27 16 19 12 -5 14 -1 8 18 -10 32 -15 36 -24 20 -6 -9 -11 -10
-15 -2 -9 13 1 31 17 31 7 0 27 21 46 45 26 35 40 45 62 45 15 0 32 6 36 14
11 20 120 89 173 110 25 10 52 22 60 27 8 5 23 12 33 15 9 4 17 10 17 15 0 5
11 14 25 19 14 5 25 14 25 20 0 5 5 10 10 10 6 0 10 -6 10 -14 0 -10 13 -13
49 -11 49 2 129 46 149 81 8 14 47 41 64 43 4 1 5 -6 2 -14z m198 -175 c10
-10 13 -22 8 -25 -5 -3 -11 -1 -15 5 -10 16 -33 12 -75 -15 -23 -14 -54 -28
-70 -32 -16 -3 -34 -11 -40 -18 -15 -18 45 -32 65 -15 9 7 34 10 65 7 52 -5
76 -16 53 -24 -7 -3 -13 -11 -13 -20 0 -35 -63 -68 -155 -79 -27 -3 -62 -14
-77 -25 -28 -20 -46 -23 -72 -13 -25 10 -19 24 10 24 20 0 24 4 19 19 -4 14 3
24 31 41 20 13 50 27 68 31 21 6 12 7 -32 4 -35 -3 -68 -10 -75 -16 -7 -6 -30
-20 -52 -33 -41 -22 -59 -56 -31 -56 9 0 25 -9 35 -19 11 -11 32 -21 48 -23
22 -2 28 -8 26 -25 -2 -18 2 -23 19 -23 l21 0 -22 -19 c-17 -15 -28 -18 -46
-11 -17 7 -25 5 -29 -6 -4 -10 -16 -14 -33 -12 -21 2 -27 -1 -25 -13 1 -9 -9
-27 -23 -40 -13 -13 -25 -29 -25 -36 0 -6 -11 -20 -25 -31 -14 -11 -25 -27
-25 -36 0 -20 -53 -72 -58 -57 -2 5 6 28 17 50 25 47 25 51 7 51 -18 0 -78
-59 -71 -70 3 -5 1 -11 -5 -15 -5 -3 -10 -15 -10 -26 0 -17 6 -19 36 -17 45 4
54 -12 17 -29 -22 -11 -28 -10 -38 4 -8 11 -14 13 -19 5 -4 -7 -17 -12 -29
-12 -17 0 -19 -2 -8 -9 8 -5 11 -16 8 -25 -11 -28 41 -19 83 14 21 17 45 30
54 30 26 0 19 -46 -12 -77 -16 -15 -35 -47 -42 -71 -12 -37 -18 -44 -54 -54
-23 -7 -48 -13 -57 -14 -31 -3 -39 -14 -27 -34 10 -16 9 -23 -9 -39 -12 -12
-40 -24 -63 -27 -46 -8 -49 -26 -4 -35 26 -5 25 -6 -18 -13 -27 -5 -48 -12
-48 -17 0 -5 -7 -9 -15 -9 -22 0 -18 14 10 42 21 21 23 27 10 32 -8 3 -15 10
-15 15 0 16 42 51 61 51 9 0 19 7 22 15 5 11 0 13 -23 8 -34 -6 -43 15 -10 24
11 3 20 10 20 15 0 14 -62 1 -71 -14 -4 -6 -14 -8 -23 -5 -12 5 -20 -1 -26
-19 -13 -34 -13 -39 3 -25 8 6 16 8 20 5 8 -8 -11 -66 -28 -83 -13 -14 -15
-13 -15 6 0 12 5 25 10 28 17 11 11 23 -15 28 -25 4 -25 4 -9 -14 15 -17 15
-19 1 -19 -8 0 -20 -12 -25 -27 -9 -24 -11 -19 -11 37 -2 100 -5 129 -15 122
-5 -3 -7 2 -3 11 3 10 2 17 -2 17 -5 0 -7 10 -4 23 4 19 3 19 -6 5 -7 -10 -10
-71 -7 -170 2 -84 0 -157 -4 -163 -12 -16 -20 -75 -10 -75 5 0 11 10 13 23 4
19 4 18 6 -5 0 -16 -3 -28 -8 -28 -17 0 -41 12 -37 19 2 3 7 32 10 64 4 32 7
61 7 65 1 4 0 21 -1 37 -2 22 -4 25 -7 10 -3 -11 -14 -32 -24 -47 -11 -14 -19
-31 -19 -38 0 -7 -10 -26 -22 -43 -13 -18 -22 -34 -21 -37 5 -9 -8 -40 -16
-40 -15 0 -29 24 -25 43 2 9 6 25 7 34 2 9 9 19 15 21 6 2 8 10 5 18 -3 8 -2
22 2 32 9 20 12 33 19 87 3 22 19 83 37 135 19 56 34 125 37 168 2 39 9 72 13
72 5 0 9 8 9 18 0 10 7 28 16 40 12 17 21 21 42 16 15 -4 33 -11 40 -17 8 -7
12 -5 12 7 0 9 5 16 12 16 6 0 19 6 27 13 19 16 93 39 100 31 3 -3 -1 -9 -9
-15 -12 -7 -12 -11 -2 -17 10 -7 7 -13 -12 -25 -14 -10 -30 -17 -36 -17 -5 0
-10 -6 -10 -13 0 -8 14 -14 35 -15 28 -2 37 3 52 25 10 15 26 34 35 41 10 7
18 19 18 27 0 11 13 13 55 11 49 -3 53 -1 45 15 -12 22 -13 76 -1 83 5 3 21
31 35 62 35 74 88 118 159 133 15 3 28 11 28 16 1 16 31 45 47 45 13 0 13 -3
-1 -18 -10 -10 -17 -22 -17 -25 0 -8 40 13 55 29 5 6 30 18 55 28 25 10 62 26
82 37 20 10 46 19 56 19 11 0 22 6 25 14 3 8 16 16 29 19 13 2 25 5 28 6 3 0
13 -8 22 -19z m-3469 -52 c-14 -7 -23 -20 -23 -34 0 -13 -5 -26 -10 -29 -8 -5
-8 -11 0 -20 8 -10 7 -13 -6 -11 -9 0 -19 -4 -21 -10 -2 -7 2 -11 9 -10 7 0
13 -3 13 -8 0 -5 -19 -10 -42 -12 -75 -6 -121 -42 -151 -119 -14 -33 -64 -85
-102 -105 -23 -12 -24 -12 -11 4 22 26 7 32 -68 23 -19 -2 -37 -9 -39 -15 -2
-7 -8 -10 -12 -7 -5 3 -18 -3 -30 -15 -11 -11 -24 -20 -30 -20 -5 0 -13 -8
-19 -17 -5 -10 -12 -17 -16 -15 -3 1 -21 -9 -40 -24 -28 -21 -33 -29 -24 -40
8 -10 8 -14 0 -14 -6 0 -11 -5 -11 -11 0 -6 10 -8 23 -4 21 5 21 5 3 -7 -10
-7 -31 -23 -46 -36 l-28 -22 -17 47 c-10 27 -23 61 -31 78 -11 25 -11 31 0 37
8 4 17 18 20 30 4 16 30 35 88 63 94 46 292 175 388 253 72 58 129 81 205 81
43 0 47 -2 28 -11z m6025 -10 c9 -9 6 -19 -16 -42 -17 -19 -21 -27 -10 -23 51
18 86 19 96 1 8 -15 13 -16 26 -5 19 16 51 7 96 -29 26 -19 41 -25 55 -19 27
10 61 11 50 1 -6 -5 -29 -15 -52 -22 -24 -7 -43 -17 -43 -22 0 -4 -9 -8 -20
-8 -11 0 -20 5 -20 10 0 15 -16 12 -34 -5 -22 -22 -28 -18 -24 17 3 27 0 31
-21 33 -15 1 -34 -7 -47 -22 -12 -12 -28 -23 -35 -23 -26 1 -53 30 -55 57 0
20 -7 29 -25 33 -40 10 -34 35 13 59 50 25 50 25 66 9z m-3922 -89 c33 -27 90
-80 127 -118 56 -60 67 -68 78 -55 19 23 68 46 87 41 12 -3 7 -9 -18 -20 -41
-18 -63 -49 -53 -74 10 -25 36 -53 49 -53 7 0 14 -7 18 -15 3 -8 10 -15 15
-15 6 0 8 7 4 16 -5 14 -2 16 19 11 18 -5 28 -2 32 8 12 32 27 15 20 -22 -8
-48 -11 -51 -27 -29 -12 17 -14 16 -30 -8 -14 -21 -15 -31 -7 -47 9 -15 8 -24
-1 -35 -16 -19 -31 -18 -28 4 1 9 1 24 0 32 -2 25 -21 -10 -21 -41 0 -14 -7
-34 -15 -45 -14 -18 -14 -17 -9 14 8 40 -12 44 -27 5 -9 -25 -11 -26 -20 -10
-6 9 -14 15 -20 12 -5 -4 -8 3 -6 14 2 12 21 37 43 57 l39 37 -36 -22 c-44
-26 -45 -26 -52 -1 -3 11 -1 20 3 20 5 0 2 14 -6 30 -9 17 -23 30 -34 30 -18
0 -30 18 -37 55 -2 11 -10 25 -19 32 -9 6 -16 28 -17 48 -1 31 -10 43 -78 103
-81 70 -93 89 -36 53 49 -30 52 -26 9 15 -48 46 -24 34 54 -27z m1074 -530 c0
-6 -16 -27 -35 -47 -22 -24 -35 -47 -35 -64 0 -24 -4 -28 -27 -28 -16 -1 -39
-7 -53 -15 -52 -30 -127 -10 -84 22 10 8 18 20 16 27 -6 31 88 87 113 66 7 -5
25 3 50 25 38 31 55 36 55 14z m-2355 -1080 c46 -40 63 -49 88 -47 17 2 32 8
34 14 2 7 -5 10 -20 7 -18 -4 -29 2 -41 18 -20 29 -21 45 -1 29 9 -7 34 -14
56 -16 23 -1 49 -10 60 -20 15 -14 21 -15 34 -4 18 15 30 7 22 -15 -8 -20 -46
-19 -69 2 -19 17 -19 16 -12 -11 5 -21 4 -27 -5 -22 -6 4 -11 3 -11 -3 0 -5 6
-12 13 -15 8 -3 5 -11 -11 -25 l-23 -20 21 -11 c25 -14 24 -63 -1 -68 -12 -2
-15 3 -12 21 4 17 -2 26 -21 35 -30 14 -33 27 -8 42 16 11 16 11 -1 6 -10 -3
-23 -6 -28 -6 -5 0 -9 -6 -9 -14 0 -21 -16 -28 -32 -14 -41 39 -44 40 -76 13
-19 -16 -33 -22 -37 -15 -8 13 14 42 26 34 5 -3 12 2 15 10 3 9 12 16 19 16 8
0 11 8 8 21 -5 16 -8 18 -15 7 -7 -10 -11 -9 -23 6 -20 26 -19 31 7 43 l23 10
-23 12 c-22 11 -30 31 -14 31 5 0 35 -23 67 -51z m-177 -284 l9 -40 7 43 c7
36 11 42 32 42 14 0 27 -7 30 -15 5 -11 10 -12 24 -2 15 8 39 8 102 -1 46 -7
105 -12 131 -12 41 0 47 -3 53 -24 3 -14 1 -33 -5 -43 -9 -15 -10 -13 -11 17
0 26 -3 31 -10 20 -5 -8 -10 -26 -10 -39 0 -20 -2 -21 -15 -11 -11 9 -15 9
-15 1 0 -8 -14 -11 -37 -9 -21 2 -37 8 -37 13 1 6 4 22 8 38 5 20 3 27 -8 27
-9 0 -18 -14 -22 -35 -3 -19 -11 -35 -16 -35 -6 0 -8 14 -5 35 3 19 3 35 -1
36 -60 9 -91 7 -102 -6 -17 -21 5 -48 33 -39 14 4 18 2 15 -7 -11 -34 -68 -11
-71 28 0 12 -5 19 -9 17 -4 -3 -5 -17 -2 -32 6 -26 6 -26 -12 -9 -16 14 -17
21 -6 37 14 24 15 30 2 30 -5 0 -12 -16 -16 -35 -5 -28 -11 -35 -30 -35 -20 0
-24 5 -24 31 l0 32 -21 -27 c-11 -14 -25 -24 -30 -21 -5 4 0 16 11 27 11 12
23 30 26 41 8 26 21 10 32 -38z"/>
<path d="M12027 3374 c2 -6 0 -15 -6 -19 -6 -3 -11 -15 -11 -27 0 -17 2 -18
15 -8 13 11 14 10 7 -11 -7 -19 -5 -27 13 -41 22 -17 75 -21 75 -6 0 4 9 8 20
8 13 0 22 9 26 25 3 14 10 23 14 20 22 -14 17 16 -7 41 -23 25 -28 26 -31 12
-5 -23 -10 -23 -33 5 -10 12 -18 17 -19 11 0 -16 -40 -25 -40 -10 0 7 -6 13
-14 13 -8 0 -12 -6 -9 -13z"/>
<path d="M14435 2550 c-13 -14 -27 -18 -55 -15 -21 2 -50 -3 -65 -11 -14 -7
-44 -18 -66 -24 -21 -6 -39 -15 -39 -19 0 -5 -10 -11 -22 -15 -21 -5 -21 -7
-7 -21 17 -18 49 -11 49 11 0 8 10 14 24 14 14 0 32 10 43 24 15 22 23 24 53
18 23 -5 31 -10 22 -16 -10 -6 -11 -11 0 -23 10 -13 8 -18 -11 -34 -13 -11
-35 -22 -50 -25 -39 -8 -55 -18 -66 -42 -5 -12 -13 -22 -17 -22 -5 0 -8 -4 -8
-10 0 -6 9 -6 23 -1 12 5 21 15 19 24 -1 8 5 18 14 21 12 4 15 2 10 -9 -12
-32 17 -12 92 62 65 66 102 112 102 129 0 12 -29 1 -45 -16z"/>
<path d="M12507 5343 c-38 -38 73 -126 237 -187 38 -15 75 -31 83 -37 10 -9
13 -2 13 40 0 48 -2 52 -37 74 -21 13 -69 38 -108 56 -117 56 -171 71 -188 54z"/>
<path d="M16474 5242 c3 -5 -5 -17 -18 -26 -14 -8 -27 -25 -31 -36 -3 -11 -12
-20 -20 -20 -7 0 -15 -4 -17 -8 -1 -4 -21 -15 -43 -23 -26 -10 -40 -21 -39
-32 1 -10 -5 -17 -16 -17 -10 0 -20 -7 -24 -15 -3 -8 -12 -15 -20 -15 -8 0
-28 -12 -45 -26 -21 -17 -39 -24 -52 -21 -14 4 -28 -2 -43 -19 -15 -17 -27
-22 -43 -18 -25 7 -30 33 -11 52 9 9 9 12 -1 12 -7 0 -18 -13 -24 -30 -10 -26
-16 -30 -49 -30 -21 0 -38 -4 -38 -8 0 -5 20 -7 46 -6 39 3 44 1 39 -15 -4
-15 0 -17 25 -13 17 2 33 8 36 13 3 5 15 9 26 9 12 0 32 10 45 22 l24 22 6
-22 c3 -12 9 -22 15 -22 5 0 4 -9 -2 -20 -6 -11 -18 -20 -26 -20 -8 0 -27 -14
-41 -30 -14 -17 -42 -38 -62 -46 -20 -9 -30 -18 -23 -21 7 -3 20 -1 30 3 24
11 56 11 64 -1 5 -6 8 -5 8 3 0 7 4 11 9 7 17 -10 105 -16 144 -9 34 5 38 9
33 28 -7 26 14 76 31 76 7 0 13 5 13 11 0 5 4 8 9 5 5 -4 7 3 4 14 -4 16 0 20
20 20 16 0 28 -7 32 -19 4 -14 11 -17 29 -13 20 6 86 55 86 64 0 2 -27 2 -61
1 -65 -1 -77 15 -22 30 24 7 30 15 29 33 -1 19 -7 24 -28 24 -21 0 -28 5 -28
19 0 16 7 18 49 16 39 -2 48 1 47 14 -1 11 8 16 29 17 50 2 55 4 55 15 0 6 -7
8 -15 5 -9 -3 -18 1 -21 9 -5 12 -9 12 -30 -2 -28 -18 -29 -17 -52 28 -10 18
-23 35 -31 37 -8 3 -11 0 -7 -6z"/>
<path d="M12944 5136 c-14 -37 1 -61 61 -93 63 -33 129 -42 166 -23 17 10 4
19 -97 70 -64 33 -118 60 -120 60 -3 0 -7 -6 -10 -14z"/>
<path d="M11584 5105 c-7 -5 -16 -22 -20 -37 l-6 -28 58 0 c127 0 291 36 268
59 -11 11 -286 17 -300 6z"/>
<path d="M12926 5025 c4 -16 11 -40 15 -52 5 -13 6 -23 4 -23 -2 0 0 -12 5
-26 6 -14 11 -60 11 -100 1 -67 3 -76 25 -90 13 -9 31 -13 40 -10 9 4 23 1 30
-5 8 -7 28 -9 46 -5 18 3 42 7 53 9 17 2 20 9 20 47 l0 45 -40 2 c-22 2 -48 5
-58 7 -17 4 -18 -1 -15 -44 l3 -49 -30 6 c-16 3 -31 7 -32 7 -1 1 -9 40 -17
87 -20 116 -42 199 -56 212 -9 9 -10 5 -4 -18z"/>
<path d="M12595 4951 c-3 -6 5 -20 17 -31 28 -27 319 -171 330 -163 12 7 6 82
-7 93 -10 8 -314 110 -328 110 -3 0 -8 -4 -12 -9z"/>
<path d="M4332 4875 l-23 -24 30 -16 c31 -16 39 -29 22 -40 -6 -3 -14 3 -20
12 -9 16 -12 16 -21 3 -8 -13 -11 -13 -19 -1 -5 8 -7 20 -4 28 3 7 -1 14 -8
14 -51 5 -71 3 -91 -7 l-23 -12 28 -7 c15 -4 27 -11 27 -16 0 -5 -8 -6 -17 -2
-10 3 -6 -4 10 -16 15 -12 27 -28 27 -36 0 -23 -24 -23 -43 1 -10 13 -31 32
-47 44 -25 18 -28 18 -25 3 2 -10 4 -22 4 -27 1 -4 8 -6 15 -3 9 4 17 -2 21
-14 4 -10 11 -19 16 -19 5 0 9 -4 9 -10 0 -16 -18 -12 -40 10 -28 28 -42 26
-30 -5 5 -14 6 -25 1 -25 -12 0 -28 22 -33 45 -2 11 -9 19 -16 18 -10 -2 -34
38 -44 76 -3 9 -15 2 -38 -23 -19 -20 -40 -36 -47 -36 -23 0 -54 -40 -48 -61
4 -11 2 -19 -5 -19 -6 0 -15 -11 -20 -25 -6 -16 -16 -25 -26 -23 -9 2 -19 -3
-21 -9 -6 -16 19 -17 35 -1 7 7 12 8 12 4 0 -5 6 -3 14 4 8 6 12 19 9 28 -6
14 -4 15 9 4 32 -26 -11 -71 -59 -63 -7 1 -13 -5 -13 -14 0 -10 5 -13 12 -9 7
5 9 2 5 -9 -3 -9 0 -18 9 -21 8 -3 14 -1 14 4 0 6 4 10 8 10 5 0 9 -7 9 -15 0
-8 -4 -15 -9 -15 -4 0 -8 -9 -8 -20 0 -13 -7 -20 -19 -20 -14 0 -17 6 -13 25
3 20 0 25 -17 25 -12 0 -19 -4 -16 -10 9 -15 -13 -48 -43 -62 -15 -8 -26 -21
-26 -31 1 -9 -4 -17 -12 -17 -8 0 -14 -10 -14 -22 0 -43 -12 -68 -31 -68 -21
0 -24 11 -8 27 16 16 1 37 -16 23 -8 -7 -24 -9 -36 -5 -13 4 -24 2 -29 -5 -4
-7 -10 -8 -13 -3 -3 4 1 17 9 28 13 17 16 18 25 5 8 -12 9 -10 4 8 -4 13 -2
22 4 22 15 0 14 40 -1 41 -7 0 -4 4 7 8 11 5 22 5 25 0 3 -4 11 -4 19 0 10 7
10 14 -4 40 -13 25 -14 36 -4 47 14 17 3 18 -40 3 -29 -10 -36 -24 -31 -59 1
-8 -1 -12 -6 -8 -4 4 -13 0 -20 -10 -10 -12 -13 -13 -14 -3 0 8 -6 11 -17 7
-15 -5 -15 -3 1 9 14 10 17 18 10 25 -13 13 -33 -7 -39 -38 -3 -15 1 -19 16
-15 10 3 19 2 19 -3 0 -10 -88 -92 -94 -87 -2 2 -13 -7 -24 -21 -11 -15 -27
-26 -35 -26 -9 0 -19 -4 -22 -10 -3 -5 1 -10 10 -10 9 0 15 -7 13 -16 -3 -14
5 -22 41 -41 2 -1 -3 -8 -11 -16 -20 -20 -54 2 -35 23 10 10 6 11 -18 6 -16
-4 -51 -27 -77 -52 -26 -24 -55 -44 -65 -44 -14 1 -13 4 7 16 21 13 22 14 4 9
-14 -4 -24 0 -28 10 -3 8 -16 15 -29 15 -14 0 -30 7 -37 15 -20 24 -27 18 -25
-20 1 -28 -3 -35 -19 -35 -11 0 -16 -3 -13 -7 4 -3 2 -12 -5 -20 -8 -10 -8
-17 0 -25 13 -13 -12 -37 -40 -38 -11 0 -18 -8 -18 -20 0 -11 -7 -23 -15 -26
-8 -4 -15 -11 -15 -17 0 -5 9 -2 19 7 10 10 21 13 24 9 10 -16 4 -78 -7 -85
-8 -6 -7 -11 2 -17 8 -4 12 -11 10 -14 -5 -10 31 -47 46 -47 8 0 16 6 19 13 6
17 42 -5 41 -26 -2 -24 34 -8 39 19 2 13 0 25 -4 26 -5 2 -5 17 0 35 7 23 6
35 -3 43 -8 6 -13 30 -12 60 1 28 -2 50 -7 50 -4 0 -5 5 -2 10 3 6 11 10 17
10 6 0 8 -3 5 -7 -8 -8 23 -32 42 -33 7 0 11 6 8 14 -8 21 50 14 66 -8 12 -16
13 -16 14 3 1 13 -4 21 -13 21 -8 0 -12 5 -9 10 10 17 35 11 35 -8 0 -10 6
-24 13 -31 10 -10 8 -15 -7 -27 -11 -8 -28 -14 -38 -14 -10 0 -18 -5 -18 -11
0 -6 7 -8 16 -5 9 3 27 6 40 6 13 0 24 6 24 13 0 7 16 21 36 31 30 14 35 21
32 41 -3 15 0 26 9 29 25 10 35 7 30 -9 -9 -22 7 -26 24 -6 13 14 13 19 2 30
-7 6 -17 10 -22 7 -5 -3 -14 1 -21 9 -11 13 -8 15 19 15 23 0 31 -5 31 -17 1
-16 2 -16 11 1 9 14 8 21 -2 28 -11 8 -10 9 3 5 9 -3 22 0 28 8 9 11 7 12 -9
8 -24 -6 -29 15 -6 23 8 4 12 10 9 16 -3 5 -12 7 -20 4 -7 -3 -16 -1 -19 4 -3
4 9 12 27 15 37 8 71 29 62 38 -3 3 -13 3 -22 0 -10 -4 -13 -2 -8 5 9 15 43
16 51 1 4 -6 -2 -17 -13 -25 -12 -8 -20 -24 -19 -35 1 -18 6 -16 39 19 28 31
39 37 48 28 14 -18 -12 -69 -47 -92 -36 -23 -54 -42 -84 -84 -41 -61 -53 -70
-84 -70 -16 0 -41 -9 -55 -20 l-25 -19 24 4 c12 2 29 9 37 16 11 9 14 8 14 -4
0 -9 -4 -19 -10 -22 -5 -3 -10 -17 -10 -31 0 -15 -6 -24 -15 -24 -8 0 -15 9
-15 20 0 18 -2 19 -20 8 -15 -9 -19 -20 -15 -35 4 -16 1 -23 -10 -23 -8 0 -15
-4 -15 -10 0 -5 -9 -10 -19 -10 -11 0 -23 -4 -26 -10 -10 -16 23 -12 50 6 14
9 25 12 25 7 0 -17 -44 -51 -70 -55 -14 -2 -29 -13 -35 -25 -5 -13 -16 -23
-23 -23 -7 0 -21 -7 -30 -17 -16 -15 -15 -16 11 -11 28 5 38 -6 12 -16 -8 -3
-29 1 -47 9 -18 8 -28 15 -23 15 6 0 2 5 -8 11 -9 6 -26 7 -37 4 -13 -4 -20
-2 -20 6 0 8 -5 7 -17 -3 -18 -16 -77 -48 -88 -48 -3 0 -5 8 -5 18 -1 41 -38
-68 -43 -128 -2 -16 -8 -25 -18 -24 -11 1 -15 -7 -14 -27 1 -15 -2 -26 -7 -23
-4 3 -8 -11 -8 -30 0 -20 3 -36 8 -36 9 0 9 -86 0 -96 -4 -4 -3 -13 3 -21 9
-10 7 -13 -10 -13 -16 0 -21 -6 -21 -25 0 -14 7 -28 15 -31 22 -9 18 -24 -5
-24 -11 0 -20 5 -20 11 0 7 -10 9 -25 5 -27 -7 -36 11 -10 20 8 4 15 14 15 24
0 10 6 23 13 29 8 6 14 24 15 41 1 36 -25 41 -52 11 -22 -24 -56 -34 -56 -16
0 9 8 12 21 10 18 -4 20 -1 15 18 -3 12 -6 25 -6 30 0 4 -7 7 -15 7 -8 0 -15
7 -15 16 0 11 6 14 21 9 15 -5 19 -4 14 4 -4 7 -2 18 4 25 25 30 -12 62 -53
46 -13 -5 -27 -6 -30 -3 -3 4 -6 1 -6 -5 0 -5 6 -13 13 -15 6 -3 -3 -6 -20 -6
-29 -1 -33 2 -33 24 0 14 5 25 10 25 6 0 10 5 10 11 0 6 7 17 15 25 13 14 16
13 25 -10 5 -14 16 -26 24 -26 23 0 8 30 -33 67 -23 21 -42 31 -53 27 -14 -4
-16 -1 -11 13 5 15 3 16 -8 6 -17 -17 -29 -16 -29 1 0 8 -12 16 -27 18 -14 2
-28 9 -31 16 -6 18 44 15 75 -5 l26 -17 -7 28 c-7 28 -6 29 28 23 27 -4 36 -2
36 9 0 8 6 14 13 14 7 1 6 6 -5 14 -9 7 -19 29 -21 49 -5 46 -10 51 -36 37
-17 -8 -21 -8 -21 4 0 8 5 16 12 18 26 9 -1 38 -35 38 -36 0 -67 -25 -67 -54
0 -17 67 -64 84 -58 10 3 46 -27 46 -40 0 -4 -9 -8 -21 -8 -15 0 -19 4 -15 16
11 30 -65 7 -97 -29 -15 -18 -23 -33 -17 -35 5 -2 10 -10 10 -18 0 -9 4 -13 9
-10 5 3 11 -1 15 -9 6 -17 -19 -21 -30 -4 -8 14 -85 -68 -87 -92 -1 -10 -9
-20 -19 -22 -10 -3 -18 -12 -18 -21 0 -20 -30 -56 -47 -56 -7 0 -13 -4 -13
-10 0 -5 4 -10 10 -10 5 0 8 -14 7 -30 -1 -20 -6 -29 -15 -25 -8 3 -16 5 -18
5 -2 0 -4 8 -5 18 0 10 -3 12 -6 4 -2 -6 -9 -10 -13 -7 -5 3 -12 -10 -16 -30
-4 -21 -12 -35 -21 -35 -10 0 -12 6 -8 20 4 12 2 20 -5 20 -36 0 -62 76 -35
104 22 21 18 29 -9 22 -14 -3 -27 -2 -30 3 -3 5 4 11 15 14 12 3 18 10 15 15
-3 6 0 12 6 15 7 2 1 8 -15 12 -15 4 -27 10 -27 14 0 3 20 15 45 26 41 18 59
35 36 35 -5 0 -12 11 -15 25 -4 14 -10 25 -14 25 -5 0 -19 -11 -32 -25 -13
-14 -31 -25 -40 -25 -22 0 -40 -19 -33 -36 3 -8 1 -14 -4 -14 -5 0 -15 -16
-22 -35 -7 -19 -19 -35 -27 -35 -17 0 -19 -16 -1 -23 9 -4 9 -7 -1 -15 -7 -5
-12 -13 -11 -18 2 -9 -6 -34 -22 -69 -10 -22 -7 -73 5 -93 5 -8 -2 -23 -18
-39 -14 -14 -23 -30 -20 -35 3 -5 0 -15 -6 -23 -9 -11 -10 -19 -1 -28 6 -8 8
-17 5 -20 -4 -4 -8 -17 -9 -29 -1 -13 -3 -29 -4 -35 -2 -26 -17 -12 -27 27 -8
28 -8 42 0 50 6 6 11 34 12 63 1 29 4 62 8 75 5 13 3 22 -3 22 -6 0 -11 -4
-11 -10 0 -5 -4 -10 -9 -10 -5 0 -7 8 -4 19 3 13 -3 22 -25 32 -25 11 -29 18
-31 57 -1 39 1 43 14 32 8 -7 15 -19 15 -27 0 -8 9 -26 20 -40 l20 -25 9 23
c5 15 5 26 -1 30 -6 4 -11 18 -11 33 -2 19 -7 26 -23 26 -17 0 -20 5 -16 31 3
21 1 30 -6 25 -5 -3 -8 -15 -5 -26 4 -14 -1 -21 -22 -26 -15 -4 -31 -2 -37 4
-6 6 -17 8 -24 5 -8 -3 -14 0 -14 5 0 6 8 12 18 15 14 3 13 6 -7 14 -16 6 -20
12 -13 17 31 19 -8 28 -79 17 -9 -1 -6 -91 3 -91 4 0 17 4 31 9 32 12 33 -13
0 -30 -25 -13 -29 -24 -13 -34 6 -3 10 -13 10 -21 0 -16 -47 -19 -70 -4 -13 9
-12 13 8 28 15 12 21 24 16 35 -13 35 -79 51 -90 22 -5 -12 -10 -13 -20 -4
-11 9 -14 8 -14 -5 0 -9 -11 -21 -25 -26 -14 -5 -25 -14 -25 -20 0 -5 -10 -10
-21 -10 -17 0 -20 4 -15 23 3 12 6 28 6 36 0 9 8 11 26 7 14 -4 23 -3 20 2 -3
5 2 18 12 28 17 20 42 60 42 68 0 2 -10 7 -22 11 l-23 8 22 4 c13 2 23 8 23
13 0 4 12 11 28 15 23 6 24 8 9 14 -10 4 -18 11 -17 16 0 5 -7 10 -16 11 -21
3 -27 10 -19 24 4 6 15 8 26 5 24 -8 25 3 2 21 -17 12 -16 13 4 14 17 0 24 8
28 28 3 15 12 48 19 74 l14 47 -32 3 c-24 2 -30 7 -28 22 3 16 -1 17 -25 12
-33 -8 -53 -31 -53 -61 0 -15 -10 -25 -32 -33 -18 -7 -41 -23 -50 -36 -16 -21
-16 -27 -4 -39 13 -12 13 -19 -1 -48 -8 -19 -29 -43 -46 -54 -36 -24 -37 -39
-2 -43 30 -4 32 -17 5 -32 -27 -14 -25 -30 3 -30 28 0 47 17 47 42 0 10 4 18
9 18 4 0 12 19 17 42 7 34 14 43 36 49 21 5 28 4 28 -7 0 -8 -4 -14 -10 -14
-5 0 -10 -7 -10 -15 0 -18 36 -20 44 -2 5 9 7 9 12 -1 3 -6 10 -10 15 -7 5 4
6 0 3 -8 -3 -10 -18 -14 -45 -12 -49 3 -63 -15 -67 -84 -2 -19 -6 -22 -25 -19
-20 4 -23 1 -19 -19 3 -18 0 -23 -17 -23 -12 0 -31 5 -42 11 -16 8 -18 13 -8
25 19 23 -18 17 -42 -7 -15 -15 -18 -24 -10 -32 16 -16 14 -27 -5 -27 -13 0
-15 8 -12 35 3 24 0 35 -9 35 -7 0 -10 -6 -7 -14 3 -8 -4 -16 -18 -20 -21 -6
-22 -7 -6 -20 29 -21 22 -39 -11 -31 -21 4 -30 2 -35 -11 -4 -9 -3 -20 0 -23
4 -3 9 0 11 7 5 13 23 7 23 -9 0 -6 -4 -8 -9 -5 -8 5 -58 -42 -53 -50 1 -2 2
-7 1 -11 -1 -5 0 -18 1 -30 1 -14 -4 -23 -13 -23 -8 0 -17 -7 -21 -15 -7 -20
-32 -19 -40 1 -9 22 4 64 19 64 7 0 15 7 19 15 3 8 0 15 -6 15 -7 0 -7 4 -1
13 14 16 13 50 -1 60 -7 5 -5 11 6 18 10 5 18 16 18 24 0 8 9 19 20 25 15 8
20 21 20 55 0 46 -14 60 -25 25 -9 -27 -25 -26 -17 2 3 14 2 19 -6 14 -7 -4
-12 -16 -12 -26 0 -10 -4 -21 -9 -24 -5 -3 -7 -14 -4 -25 3 -10 -3 -33 -11
-50 -12 -21 -13 -31 -5 -31 7 0 5 -8 -6 -20 -10 -11 -20 -18 -23 -15 -3 2 -11
-3 -18 -13 -10 -14 -16 -15 -31 -5 -10 6 -17 16 -15 23 1 6 -7 25 -18 41 -12
16 -18 29 -13 29 4 0 14 9 20 20 10 15 9 25 -5 49 -17 30 -45 41 -57 21 -3 -5
-1 -10 4 -10 6 0 11 -6 11 -14 0 -9 7 -12 20 -9 14 4 20 0 20 -11 0 -13 -5
-14 -26 -6 -14 6 -26 10 -27 10 -2 0 -11 -16 -21 -35 -20 -37 -46 -47 -46 -18
0 15 -2 14 -14 -3 -9 -12 -11 -23 -5 -30 6 -7 4 -16 -5 -23 -11 -9 -17 -8 -30
4 -19 20 -20 27 -4 43 7 7 8 12 4 12 -5 0 -2 7 5 16 12 15 11 16 -8 10 -12 -4
-24 -2 -28 4 -4 6 4 10 19 10 19 0 26 5 26 19 0 29 -16 34 -51 16 -23 -12 -28
-20 -20 -28 6 -6 11 -14 11 -18 0 -10 -42 -25 -75 -28 -9 0 -21 -12 -27 -26
-15 -33 -36 -32 -32 1 3 32 -9 22 -13 -11 -2 -16 3 -28 17 -35 11 -6 20 -15
20 -20 0 -13 -36 -13 -61 1 -17 9 -22 5 -34 -25 -9 -20 -19 -36 -24 -36 -5 0
-17 -7 -25 -16 -16 -15 -36 -12 -36 7 0 6 5 7 10 4 6 -4 10 8 10 29 0 30 -4
36 -20 36 -18 0 -19 3 -9 21 9 17 13 19 20 8 4 -7 10 -11 13 -8 11 10 17 94 8
107 -10 15 -42 5 -42 -13 0 -16 -27 -27 -35 -15 -4 6 -3 15 1 22 4 7 3 8 -4 4
-14 -8 -35 29 -29 52 3 12 5 11 6 -5 1 -29 27 -30 36 -2 7 20 32 21 28 0 -2
-6 2 -11 7 -11 6 0 10 9 10 20 0 21 20 29 20 8 1 -20 48 -73 57 -64 4 5 2 11
-4 13 -17 6 -16 23 1 23 20 0 27 27 9 34 -9 4 -13 9 -10 13 4 3 14 0 23 -8 14
-11 18 -11 30 6 21 29 17 37 -15 30 -17 -3 -32 -2 -36 4 -3 6 -15 11 -26 11
-12 0 -19 7 -19 19 0 26 -15 34 -29 17 -10 -11 -8 -17 6 -25 15 -9 16 -10 2
-11 -36 0 -54 55 -28 86 15 19 -3 25 -23 7 -10 -9 -18 -13 -18 -8 0 4 -7 2
-15 -5 -19 -16 -19 -40 0 -40 8 0 15 7 15 15 0 8 5 15 10 15 30 0 -9 -52 -41
-55 -13 -1 -27 -3 -31 -4 -14 -3 -20 -63 -7 -72 8 -5 10 -9 5 -9 -5 0 -1 -9
10 -21 16 -17 16 -22 4 -29 -21 -13 -36 -6 -32 15 4 23 -18 37 -33 22 -11 -12
-12 -73 -1 -84 3 -4 14 0 23 8 10 9 30 20 45 27 24 10 29 9 38 -8 7 -13 7 -21
-1 -25 -6 -4 -8 -18 -5 -31 5 -17 0 -30 -16 -46 -12 -12 -23 -28 -24 -34 -3
-23 -37 -64 -51 -64 -11 0 -14 6 -9 23 3 12 6 25 6 30 0 4 9 7 20 7 11 0 20 5
20 12 0 6 9 21 19 32 18 19 18 23 4 41 -10 13 -17 16 -20 8 -2 -7 -11 -9 -19
-6 -8 3 -14 2 -12 -3 4 -13 -25 -54 -38 -54 -7 0 -22 9 -35 20 l-24 19 23 1
c15 0 22 6 22 20 0 17 -3 19 -19 11 -14 -8 -20 -7 -25 4 -6 17 -46 21 -46 5 0
-5 6 -10 14 -10 29 0 27 -20 -3 -26 -16 -4 -32 -13 -35 -21 -3 -8 -11 -11 -17
-7 -7 4 -9 3 -5 -4 3 -6 2 -13 -4 -17 -5 -3 -10 -15 -10 -26 0 -27 -15 -24
-28 6 -10 22 -8 28 15 49 23 22 25 26 10 32 -9 3 -28 3 -41 0 -20 -5 -23 -11
-21 -46 2 -35 0 -40 -20 -40 -29 0 -37 -21 -23 -61 l11 -32 28 31 c34 37 39
39 39 12 0 -11 -4 -20 -8 -20 -5 0 -15 -11 -22 -25 -7 -14 -20 -25 -27 -25 -7
0 -16 -7 -19 -15 -4 -8 -10 -13 -14 -10 -14 9 -38 -6 -43 -27 -3 -11 -10 -17
-16 -13 -8 4 -11 -82 -11 -287 1 -242 3 -296 15 -312 19 -25 19 -36 0 -36 -13
0 -15 -154 -15 -1325 l0 -1325 4460 0 c3097 0 4460 3 4460 11 0 6 5 7 13 2 6
-4 27 -8 45 -10 27 -2 32 2 32 20 1 12 2 92 3 178 l2 156 33 52 c18 29 29 57
26 63 -4 7 -2 8 4 4 6 -3 16 3 23 15 10 20 9 21 -10 16 -35 -9 -19 17 17 28
38 11 40 18 10 33 -18 8 -19 11 -5 11 21 1 21 0 1 69 -10 33 -17 96 -18 149
-1 51 -2 93 -4 93 -1 0 -7 -10 -12 -23 -7 -17 -9 -18 -9 -4 -1 9 -7 17 -13 17
-20 1 23 30 44 30 9 0 22 9 28 19 14 26 13 38 -2 23 -7 -7 -23 -12 -37 -11
-26 0 -26 0 -3 9 32 13 27 28 -12 35 -26 5 -35 13 -39 31 -4 25 2 31 19 14 12
-12 104 -21 104 -9 0 5 -5 9 -11 9 -5 0 -7 5 -4 11 4 6 13 8 21 5 10 -4 22 12
40 52 42 92 154 359 258 615 l98 238 -27 41 c-15 22 -24 42 -21 45 12 13 36
-8 44 -39 l9 -33 21 49 c26 58 26 55 6 94 -26 54 -23 84 11 101 17 8 35 21 41
29 10 13 13 13 22 -4 6 -10 12 -16 12 -12 0 4 -9 22 -20 40 -11 18 -20 44 -20
58 0 22 -51 99 -72 108 -11 5 -10 32 1 32 5 0 26 -15 46 -34 20 -19 42 -33 48
-30 7 2 23 -14 37 -35 13 -22 27 -38 31 -35 4 2 20 28 37 57 32 57 142 199
204 263 22 23 41 50 42 60 2 10 7 19 13 19 5 0 34 27 63 60 44 49 46 53 15 25
l-40 -35 34 38 c19 20 42 37 51 37 9 0 29 14 46 32 16 18 21 26 12 19 -20 -15
-23 -9 -8 20 6 10 17 19 25 19 7 0 16 4 19 9 3 4 -6 6 -19 3 -23 -4 -25 -1
-25 32 0 28 -5 38 -27 49 l-27 15 28 0 c21 0 33 -9 48 -34 20 -35 32 -41 43
-24 3 5 12 7 20 4 8 -4 12 -11 9 -16 -4 -6 -9 -6 -14 2 -5 9 -9 9 -14 1 -4 -6
-2 -11 5 -11 8 0 5 -8 -7 -22 -10 -13 5 -1 34 27 29 27 52 51 52 54 0 2 -3 2
-6 -2 -3 -3 -12 -1 -19 6 -10 9 -9 14 4 24 14 11 13 12 -8 13 -23 0 -23 1 -7
13 16 12 16 14 -4 35 -11 12 -16 22 -10 22 19 0 60 -32 60 -46 0 -8 5 -14 10
-14 6 0 10 6 10 14 0 20 47 49 54 33 3 -7 7 -3 11 11 7 22 25 31 25 12 0 -5
10 -10 23 -11 21 0 21 -1 2 -9 -13 -5 -14 -9 -5 -9 8 0 24 4 35 9 17 7 17 9 3
9 -10 1 -18 7 -18 15 0 8 -3 23 -7 33 -7 17 -6 17 20 0 34 -22 40 -22 32 2 -5
17 -2 19 22 14 15 -2 37 -5 49 -6 28 -3 20 -37 -9 -37 -11 0 -18 -3 -15 -6 3
-3 23 -2 44 2 22 4 34 9 28 11 -7 2 -10 13 -7 23 3 11 0 20 -6 20 -6 0 -11 5
-11 11 0 5 5 7 10 4 6 -3 10 -2 10 3 0 5 -9 12 -20 15 -11 3 -25 18 -31 34
-10 22 -13 24 -16 11 -8 -34 -29 -20 -25 17 2 20 10 35 17 35 7 0 15 11 17 25
6 30 -11 34 -19 5 -3 -11 -12 -20 -20 -20 -11 0 -13 7 -8 29 3 16 2 32 -4 35
-13 9 -31 -26 -26 -52 3 -15 -1 -19 -16 -15 -15 4 -18 2 -13 -11 4 -11 13 -15
25 -11 14 5 19 1 19 -10 0 -15 -8 -16 -66 -10 l-66 7 7 -31 c4 -20 3 -31 -4
-31 -6 0 -11 5 -11 11 0 8 -4 8 -14 0 -11 -9 -15 -9 -19 1 -3 7 -6 4 -6 -7 -1
-11 8 -35 20 -54 25 -41 19 -50 -17 -22 -15 11 -33 21 -40 21 -8 0 -14 4 -14
10 0 5 7 7 15 4 19 -8 19 15 0 39 -15 21 -52 18 -46 -4 2 -8 5 -21 7 -29 8
-31 -11 -43 -52 -33 -36 8 -39 12 -39 43 0 20 -6 35 -14 38 -10 3 -12 0 -8
-12 4 -9 2 -16 -3 -16 -6 0 -10 5 -10 11 0 5 -5 7 -12 3 -18 -11 -58 -11 -58
0 0 5 -2 7 -5 4 -3 -3 -3 -13 1 -22 5 -13 9 -14 20 -5 11 9 15 7 20 -5 5 -13
9 -14 20 -5 8 7 18 9 22 5 4 -4 -2 -14 -12 -22 -17 -12 -18 -14 -3 -14 9 0 17
-4 17 -10 0 -5 -25 -10 -56 -10 -49 0 -55 -2 -44 -15 7 -8 21 -15 31 -15 23 0
25 -18 4 -26 -11 -5 -13 -10 -5 -19 15 -18 -6 -31 -25 -15 -8 6 -18 9 -24 6
-16 -10 -61 12 -55 27 3 8 -5 30 -16 50 -12 20 -19 41 -15 47 3 5 -1 13 -9 16
-17 7 -22 24 -7 24 5 0 16 -7 24 -15 8 -8 17 -11 20 -8 10 9 -20 33 -42 33
-12 0 -21 5 -21 11 0 5 -5 7 -12 3 -6 -4 -8 -3 -4 4 3 6 -4 18 -16 26 -12 9
-18 16 -13 16 6 0 2 5 -7 11 -12 7 -24 6 -39 -2 -17 -9 -23 -8 -30 2 -4 8 -23
19 -41 26 -18 7 -23 11 -10 9 12 -2 38 0 58 6 28 7 33 12 24 23 -6 7 -10 19
-10 27 4 23 -12 58 -23 51 -6 -3 -7 -1 -3 6 4 6 0 24 -10 39 -10 15 -17 34
-16 43 4 23 -45 59 -79 59 -32 0 -48 -17 -25 -26 9 -3 16 -12 16 -19 0 -7 16
-25 35 -39 19 -15 35 -36 35 -47 0 -11 10 -23 24 -28 13 -5 26 -17 30 -26 6
-18 0 -15 -47 19 -39 28 -58 8 -28 -29 25 -33 20 -45 -22 -45 -21 0 -28 3 -19
9 11 7 10 9 -3 15 -9 3 -13 10 -10 16 3 5 -1 10 -10 10 -18 0 -41 20 -65 56
l-15 22 -53 -17 c-41 -14 -52 -15 -52 -4 0 7 5 13 11 13 7 0 9 10 7 25 -4 18
0 26 13 30 24 8 24 24 2 32 -10 3 -26 13 -35 21 -10 8 -18 12 -18 7 0 -4 -6
-2 -13 4 -11 8 -19 6 -36 -8 -18 -16 -19 -20 -5 -25 8 -3 27 -6 40 -6 13 0 24
-4 24 -10 0 -5 -7 -10 -16 -10 -10 0 -14 -6 -10 -15 7 -20 -1 -19 -32 5 -22
18 -27 19 -34 6 -7 -12 -20 -14 -53 -10 -33 4 -45 1 -45 -8 0 -10 -3 -9 -9 1
-12 18 -51 25 -51 9 0 -6 3 -8 6 -5 4 3 15 2 26 -4 13 -7 16 -14 9 -22 -5 -7
-10 -16 -11 -22 -2 -5 -5 -16 -8 -24 -3 -7 1 -17 9 -21 7 -5 11 -12 8 -15 -8
-8 -39 5 -39 16 0 5 -7 9 -15 9 -10 0 -15 10 -15 30 0 20 -5 30 -15 30 -18 0
-19 -5 -3 -30 7 -10 9 -22 6 -26 -10 -10 -28 5 -38 32 -5 13 -17 24 -27 24
-10 0 -14 4 -8 8 17 12 37 59 37 86 1 14 4 26 9 26 5 0 9 5 9 11 0 7 -9 9 -21
6 -19 -5 -20 -2 -15 27 5 25 2 37 -13 50 -10 9 -22 16 -27 15 -31 -5 -45 2
-39 21 8 26 -9 58 -20 39 -5 -7 -4 -14 3 -17 7 -2 9 -15 5 -33 -3 -17 0 -35 7
-44 11 -13 10 -19 -3 -33 -10 -10 -17 -12 -17 -4 0 6 -6 9 -13 6 -7 -2 -22 6
-33 19 -31 35 -35 45 -23 53 7 4 9 3 6 -3 -4 -6 -1 -13 6 -16 10 -4 13 2 9 19
-3 17 -11 24 -28 24 -13 0 -24 -4 -24 -9 0 -5 -9 -7 -20 -4 -11 3 -18 9 -15
13 7 11 -15 27 -48 35 -29 8 -37 25 -12 25 29 0 14 36 -29 73 -53 44 -66 46
-66 12 0 -14 6 -25 13 -25 7 0 23 -13 35 -29 20 -27 20 -30 4 -34 -15 -3 -15
-5 3 -12 11 -5 28 -17 38 -27 15 -15 16 -22 7 -33 -16 -19 -30 -19 -30 0 0 19
-20 19 -48 0 -19 -14 -24 -14 -47 1 -32 21 -26 27 27 28 46 1 68 26 23 26 -23
0 -26 4 -22 21 5 18 2 20 -26 13 -29 -6 -30 -5 -18 10 13 15 12 18 -7 23 -24
6 -28 18 -11 28 16 11 -42 62 -68 60 -26 -2 -44 -15 -21 -15 22 0 30 -27 11
-34 -9 -4 -25 1 -35 11 -17 15 -20 15 -28 3 -14 -21 -12 -30 4 -30 27 0 30
-23 6 -42 -12 -10 -20 -21 -17 -24 3 -4 17 7 32 22 22 26 26 27 35 12 6 -9 24
-19 40 -23 38 -8 39 -30 3 -33 -22 -1 -25 0 -13 9 12 8 10 9 -10 7 -17 -2 -24
-8 -22 -20 3 -19 -8 -23 -23 -9 -6 4 -23 11 -40 15 -16 4 -25 3 -19 -1 6 -4
16 -18 23 -31 15 -27 0 -52 -30 -52 -10 0 -20 -4 -23 -9 -4 -5 3 -7 14 -4 15
4 20 0 20 -16 0 -12 7 -24 15 -27 12 -5 12 -8 0 -20 -7 -8 -20 -14 -29 -14
-18 0 -30 -16 -16 -23 6 -3 5 -4 -2 -3 -25 5 -36 44 -23 83 15 44 0 89 -24 70
-8 -7 -15 -10 -17 -7 -1 3 -6 2 -10 -2 -4 -5 2 -8 14 -8 11 0 24 -5 28 -12 5
-7 2 -9 -9 -5 -9 3 -17 2 -19 -3 -2 -5 -13 -7 -26 -4 -17 5 -20 10 -12 20 16
19 -38 46 -64 32 -23 -13 -30 -5 -17 20 12 23 15 53 3 37 -4 -5 -22 -11 -40
-12 -24 -1 -37 5 -48 22 -14 21 -14 26 1 49 17 25 17 26 -3 26 -12 0 -27 -9
-35 -20 -8 -11 -16 -18 -18 -15 -3 2 -3 -11 -1 -30 3 -26 0 -35 -11 -35 -23 0
-31 -33 -11 -47 10 -7 16 -15 13 -17 -12 -12 -90 -33 -95 -25 -3 5 0 9 5 9 18
0 12 18 -6 23 -17 4 -17 5 0 6 20 1 23 16 5 27 -6 4 -14 2 -16 -4 -2 -7 -9
-12 -15 -12 -7 1 1 11 17 24 26 22 29 46 5 46 -6 0 -8 -4 -4 -9 3 -5 1 -12 -5
-16 -5 -3 -10 -1 -10 5 0 31 -55 57 -69 32 -6 -9 -11 -13 -11 -8 0 5 -8 2 -17
-5 -15 -11 -16 -11 -5 1 16 19 15 28 -5 34 -10 3 -23 18 -30 32 -10 22 -10 25
3 20 21 -8 9 29 -18 56 l-20 20 -22 -21 c-17 -18 -18 -21 -3 -15 10 3 17 1 17
-5 0 -6 -6 -11 -12 -11 -8 0 -5 -7 6 -15 15 -12 16 -15 5 -15 -10 0 -15 -8
-13 -22 1 -13 3 -27 3 -31 1 -4 11 -12 24 -17 19 -7 19 -9 3 -9 -29 -1 -2 -28
37 -37 18 -4 26 -9 20 -11 -7 -3 -13 -11 -13 -19 0 -8 6 -11 15 -8 8 4 15 14
15 24 0 11 10 20 27 23 25 5 26 4 10 -8 -12 -9 -15 -15 -7 -20 8 -5 8 -11 1
-19 -8 -9 -5 -19 10 -34 11 -12 17 -26 14 -31 -3 -5 -1 -12 3 -15 5 -3 7 -18
4 -33 -4 -23 -3 -26 9 -17 8 6 25 15 39 19 25 7 25 7 4 -9 -12 -8 -24 -28 -27
-44 -4 -19 -14 -31 -29 -35 l-23 -6 24 -22 c17 -16 20 -24 11 -29 -9 -5 -4
-12 15 -21 16 -8 29 -22 31 -32 2 -18 -37 -85 -57 -98 -6 -3 1 -19 17 -38 25
-30 27 -58 3 -34 -6 6 -17 10 -23 7 -6 -2 -19 9 -28 26 -9 16 -23 30 -31 30
-7 0 -24 12 -38 26 l-24 26 30 -7 30 -8 -22 22 c-30 29 -30 61 -1 61 17 0 19
3 10 12 -18 18 -15 35 8 41 28 7 42 49 28 87 -5 17 -8 34 -5 37 7 7 -18 33
-31 33 -9 0 -25 37 -23 53 1 4 -4 7 -9 7 -6 0 -10 6 -10 13 0 8 -13 26 -30 40
-31 28 -39 47 -18 47 6 0 4 8 -6 19 -10 11 -24 17 -31 15 -7 -3 -16 3 -19 13
-3 11 -21 24 -39 31 -33 12 -84 68 -73 80 4 3 19 -7 35 -22 l28 -27 7 31 c7
38 1 50 -23 50 -15 0 -18 7 -15 35 1 24 -2 35 -12 36 -8 1 -21 2 -31 3 -9 0
-17 -7 -19 -16 -1 -10 3 -15 11 -12 25 10 39 -32 18 -53 -16 -18 -23 -16 -23
5 -1 23 -34 62 -54 62 -29 0 -27 20 3 26 17 4 31 10 31 15 0 11 -63 -1 -71
-13 -3 -5 -13 -6 -22 -2 -12 4 -17 1 -17 -10 0 -9 7 -16 15 -16 21 0 19 -13
-6 -28 -18 -11 -23 -11 -35 5 -7 10 -14 24 -14 31 0 7 -5 10 -10 7 -6 -3 -13
1 -17 11 -5 14 -8 13 -18 -7 -11 -19 -10 -27 8 -51 11 -15 27 -28 34 -28 7 0
14 -8 15 -17 2 -33 4 -38 12 -51 4 -7 6 -16 3 -19 -7 -7 -67 86 -67 104 0 7
-7 13 -15 13 -15 0 -18 9 -15 47 1 16 -6 24 -24 29 -14 3 -26 13 -26 21 0 24
-35 10 -38 -16 -6 -38 6 -71 23 -65 9 4 15 0 15 -10 0 -9 -7 -16 -15 -16 -9 0
-15 -9 -15 -25 0 -14 5 -25 11 -25 5 0 7 -5 4 -10 -10 -16 -47 16 -71 60 -12
22 -24 37 -27 34 -3 -3 -3 -12 -1 -19 7 -16 -26 -29 -40 -15 -7 7 -4 15 11 25
22 15 25 46 5 53 -7 2 -9 -5 -7 -17 5 -26 -6 -27 -22 -1 -7 10 -31 24 -53 30
-36 10 -56 30 -30 30 19 0 10 17 -17 29 -16 8 -30 8 -36 2 -13 -13 21 -111 39
-111 17 0 18 -12 2 -29 -11 -11 -8 -12 12 -7 l25 7 -22 -17 c-24 -17 -32 -41
-10 -28 6 4 4 -2 -5 -13 -10 -11 -18 -25 -18 -32 0 -8 -7 -7 -24 4 -16 11 -22
22 -19 38 4 17 -2 26 -22 35 -15 7 -30 10 -35 7 -9 -6 -21 20 -13 29 12 11 35
6 63 -14 26 -18 40 -18 40 2 0 4 -9 8 -20 8 -20 0 -28 16 -11 22 5 2 3 12 -5
22 -8 11 -14 14 -14 8 0 -23 -26 -12 -43 18 -15 25 -21 28 -38 20 -13 -7 -19
-7 -19 0 0 5 6 10 14 10 12 0 26 20 26 36 0 14 -32 0 -45 -20 -15 -22 -15 -27
-1 -48 13 -20 13 -25 0 -42 -8 -11 -14 -28 -14 -38 0 -13 -8 -18 -26 -18 -22
0 -24 3 -15 14 10 12 9 13 -7 9 -11 -2 -23 0 -26 6 -4 6 -16 11 -27 11 -12 0
-17 -4 -14 -11 4 -6 7 -26 7 -45 0 -19 4 -32 8 -29 15 9 31 -32 22 -55 -8 -21
-10 -21 -24 -6 -9 9 -21 16 -27 16 -6 0 -11 15 -11 33 0 18 -4 37 -9 42 -5 6
-11 21 -13 35 -2 21 -8 25 -30 22 -31 -3 -37 12 -10 27 16 9 16 10 0 16 -10 4
-18 13 -18 21 0 8 -5 14 -11 14 -6 0 -9 -7 -5 -15 7 -20 0 -19 -23 3 -10 9
-30 26 -44 37 -28 21 -36 48 -13 39 28 -11 29 19 2 41 -36 28 -57 70 -44 83
16 16 2 40 -37 63 -19 12 -35 28 -35 37 0 26 -13 40 -44 48 -25 6 -28 4 -23
-10 5 -13 0 -16 -23 -16 l-29 0 14 -41 c8 -23 15 -51 16 -63 0 -11 3 -15 6 -8
8 21 23 13 23 -13 0 -14 -4 -25 -10 -25 -5 0 -10 -5 -10 -11 0 -6 9 -8 20 -4
15 5 22 0 30 -19 5 -14 16 -26 25 -26 17 0 20 16 5 25 -17 11 -11 24 10 20 30
-6 39 -14 37 -33 -2 -26 32 -92 47 -92 6 0 21 -6 31 -14 16 -12 17 -16 6 -30
-19 -23 -51 -21 -51 4 0 13 -7 20 -20 20 -16 0 -20 7 -20 34 0 18 -7 39 -15
46 -13 11 -15 10 -9 -6 5 -19 5 -19 -10 0 -10 12 -23 17 -37 13 -17 -5 -20 -2
-16 14 4 14 0 19 -15 19 -10 0 -16 -4 -13 -10 3 -5 0 -10 -7 -11 -7 0 -3 -4
10 -9 12 -5 22 -14 22 -20 0 -6 4 -9 9 -5 5 3 12 1 16 -5 3 -5 -1 -10 -9 -10
-22 0 -20 -8 10 -47 14 -18 22 -38 19 -43 -4 -7 2 -9 18 -5 21 6 25 3 29 -24
4 -24 1 -31 -13 -31 -9 0 -19 7 -23 15 -3 8 -12 15 -20 15 -7 0 -16 7 -20 15
-3 8 -9 14 -13 14 -4 -1 -16 1 -26 6 -26 11 -67 -10 -67 -35 0 -12 7 -20 16
-20 24 0 11 -24 -19 -34 -33 -12 -45 -1 -29 24 10 17 9 22 -8 32 -29 18 -25
31 8 23 28 -6 28 -6 23 37 -6 41 -7 42 -43 43 -37 2 -51 -9 -25 -18 7 -3 2 -9
-13 -15 -18 -8 -20 -11 -7 -11 9 -1 17 -6 17 -12 0 -6 -9 -8 -20 -4 -12 4 -20
2 -20 -5 0 -7 -7 -9 -15 -6 -8 3 -23 9 -32 12 -17 5 -17 5 0 -6 19 -12 25 -90
6 -90 -19 0 -39 -28 -33 -47 5 -16 4 -16 -10 1 -15 18 -21 15 -16 -9 1 -5 3
-30 4 -55 1 -25 5 -50 9 -56 9 -16 -4 -107 -14 -97 -4 4 -10 37 -12 73 -6 73
-12 96 -32 104 -11 4 -12 13 -4 41 8 29 7 46 -5 76 -9 21 -13 39 -10 39 4 0 1
7 -7 16 -10 12 -10 17 0 23 9 6 7 10 -7 13 -12 4 -23 18 -27 37 -4 17 -11 31
-16 31 -5 0 -9 7 -9 15 0 9 -10 19 -23 24 -13 5 -29 16 -36 25 -19 22 -27 20
-43 -12 -14 -27 -13 -28 25 -46 37 -18 38 -20 20 -30 -22 -12 -20 -36 3 -36 8
0 14 -4 14 -10 0 -5 -12 -10 -27 -10 -25 0 -25 -1 -9 -19 20 -22 8 -64 -24
-81 -18 -10 -19 -14 -8 -27 10 -13 9 -15 -7 -12 -11 3 -20 9 -20 14 0 6 -6 19
-12 30 l-12 20 -15 -20 c-8 -11 -16 -18 -16 -15 -9 40 -8 50 3 50 6 0 -3 13
-20 29 -18 16 -33 34 -33 40 0 6 -7 14 -15 17 -8 4 -15 14 -15 23 0 27 -57 80
-80 74 -14 -4 -20 0 -20 11 0 21 -29 21 -37 0 -3 -8 -12 -13 -19 -10 -8 3 -11
0 -7 -11 5 -11 1 -14 -13 -9 -10 3 -26 1 -34 -4 -12 -8 -10 -10 9 -8 13 2 26
-3 28 -9 3 -7 -2 -13 -11 -13 -20 0 -21 -26 -1 -34 12 -4 13 -11 5 -32 -8 -19
-8 -29 0 -34 11 -7 3 -17 -27 -34 -10 -5 -11 -1 -4 17 12 30 6 37 -32 37 -22
0 -28 4 -23 15 7 20 -8 19 -25 -1 -10 -13 -10 -17 0 -24 8 -4 10 -13 7 -19 -4
-6 0 -11 8 -11 21 0 20 -16 -1 -25 -17 -7 -16 -8 2 -15 l20 -9 -20 -1 c-19 -1
-19 -1 -2 -14 25 -19 21 -27 -8 -14 -14 6 -25 15 -25 20 0 4 -9 8 -20 8 -17 0
-19 -4 -14 -27 9 -36 13 -43 26 -43 6 0 8 9 5 21 -4 15 -1 19 10 17 25 -5 26
-22 3 -46 -12 -12 -16 -22 -10 -22 5 0 10 -7 10 -16 0 -11 -6 -14 -20 -9 -12
4 -20 2 -20 -5 0 -7 -8 -9 -20 -5 -11 4 -20 2 -20 -4 0 -6 -4 -11 -10 -11 -14
0 -12 27 3 33 8 3 6 10 -8 21 -11 8 -16 16 -11 16 5 0 18 -7 28 -17 17 -15 18
-15 18 4 0 12 -7 24 -16 27 -8 3 -12 11 -8 17 3 6 -4 24 -16 41 -24 33 -22 48
4 23 14 -14 16 -14 16 -1 0 8 -8 20 -17 25 -16 9 -15 10 5 11 21 0 23 3 17 37
-3 20 -12 44 -19 53 -7 8 -14 22 -14 30 -5 68 -30 130 -52 130 -6 0 -10 9 -10
19 0 30 -11 51 -26 51 -8 0 -14 9 -14 20 0 11 -3 19 -7 19 -19 -3 -33 2 -33
12 0 6 9 9 20 6 11 -3 20 -1 20 4 0 5 -8 9 -17 10 -12 1 -10 4 7 9 14 4 19 8
12 9 -9 1 -9 9 3 36 8 20 11 33 6 31 -15 -10 -63 44 -58 63 3 14 0 17 -14 14
-9 -3 -20 -11 -23 -19 -3 -8 -12 -14 -21 -14 -12 0 -14 4 -6 19 8 14 7 22 -4
31 -12 10 -16 9 -21 -4 -8 -21 -33 -20 -57 2 -19 16 -19 16 -12 -7 5 -16 4
-21 -4 -17 -6 4 -11 18 -11 32 0 25 -15 33 -23 12 -6 -19 53 -90 69 -84 8 3
21 -6 30 -19 18 -28 35 -25 27 5 -4 15 0 20 16 20 17 0 20 -5 15 -27 -3 -16
-7 -37 -9 -48 -2 -11 -4 -20 -6 -20 -2 0 -4 -14 -12 -66 -2 -14 0 -36 5 -50 8
-22 10 -22 19 -6 11 19 68 51 76 43 3 -3 -3 -9 -13 -13 -23 -9 -49 -33 -35
-33 10 0 8 -21 -4 -52 -4 -11 -3 -18 4 -18 6 0 11 -12 11 -28 0 -19 11 -36 35
-56 38 -32 46 -49 18 -39 -16 6 -16 5 -4 -10 7 -9 10 -17 5 -17 -5 0 -2 -5 6
-10 8 -5 15 -14 15 -20 0 -6 11 -20 25 -30 19 -15 22 -22 12 -28 -10 -7 -10
-11 2 -22 9 -7 13 -16 10 -21 -3 -5 3 -6 12 -2 13 5 16 3 11 -10 -3 -9 -2 -17
4 -17 6 0 7 -5 4 -10 -10 -17 -40 6 -61 47 -10 21 -26 43 -34 50 -8 7 -11 13
-5 13 5 0 -1 7 -13 16 -12 8 -22 22 -22 30 0 8 -4 14 -8 14 -15 0 -61 80 -55
95 3 11 1 13 -10 9 -8 -3 -21 3 -28 14 -24 32 -122 98 -127 84 -3 -10 -7 -10
-20 0 -13 11 -15 10 -9 -4 4 -12 2 -15 -8 -12 -17 7 -28 48 -14 53 6 2 -2 17
-18 34 l-28 31 41 -32 c45 -34 65 -42 43 -16 -8 10 -9 18 -3 22 19 13 23 40 8
53 -12 10 -13 9 -9 -3 4 -10 -1 -17 -14 -21 -24 -6 -37 9 -32 36 3 22 -26 57
-48 57 -9 1 -27 10 -40 21 -21 17 -22 22 -10 30 19 12 -3 12 -38 -1 -15 -6
-33 -18 -40 -26 -10 -14 -13 -13 -23 6 -9 17 -14 19 -26 9 -19 -16 -18 -27 3
-25 10 0 18 -5 19 -11 1 -7 2 -16 3 -20 0 -4 7 2 15 13 14 19 15 19 36 -4 11
-12 18 -27 14 -34 -5 -7 -12 -5 -22 8 -9 13 -16 15 -19 7 -5 -13 -30 -7 -54
14 -15 13 -16 10 -12 -32 l6 -45 -32 0 c-20 0 -41 9 -56 24 -14 14 -34 26 -46
28 -25 3 -39 28 -16 28 9 0 13 8 11 23 -2 12 -5 35 -7 50 -3 16 -9 33 -16 40
-18 18 -13 29 8 17 11 -5 27 -7 35 -4 13 5 7 13 -24 33 -23 14 -43 36 -46 48
-6 23 -51 46 -80 41 -14 -2 -20 5 -24 29 l-5 32 -23 -24z m3828 -1361 c-5 -9
-10 -10 -37 -13 -22 -2 -14 -21 8 -21 11 0 29 -5 40 -10 16 -9 17 -14 8 -33
-7 -12 -16 -25 -22 -28 -10 -7 -18 -79 -9 -79 3 0 12 9 22 20 22 26 62 16 58
-14 -3 -18 -10 -21 -52 -21 -41 -1 -49 2 -57 22 -6 16 -17 23 -34 23 -22 0
-25 4 -23 28 2 15 9 33 16 40 6 7 12 33 12 57 l0 44 38 -3 c20 -2 35 -8 32
-12z m-910 -389 c0 -5 12 -21 25 -34 20 -19 23 -26 14 -38 -9 -10 -9 -17 -1
-25 7 -7 12 -25 12 -40 0 -15 4 -28 10 -28 14 0 32 -39 26 -55 -4 -11 -11 -12
-36 -4 -17 6 -29 16 -27 23 3 6 -1 18 -8 26 -25 29 -55 91 -50 101 4 5 -1 17
-11 26 -16 16 -15 18 5 27 18 8 21 15 15 40 -6 30 -5 30 10 11 8 -11 16 -24
16 -30z m-6194 -278 c2 -7 -2 -26 -10 -42 -21 -40 -5 -56 34 -33 17 9 30 15
30 12 0 -13 -73 -130 -86 -137 -8 -4 -14 -13 -14 -20 0 -12 -59 -57 -74 -57
-15 0 1 93 18 105 21 16 20 25 -1 25 -13 0 -14 3 -5 12 10 10 17 10 32 0 11
-6 21 -12 24 -12 2 0 7 33 11 72 3 40 9 76 11 80 8 12 24 9 30 -5z m-360 -442
c-5 -18 -1 -27 13 -34 10 -6 22 -7 26 -3 5 4 5 -1 2 -11 -4 -10 -7 -23 -7 -28
0 -6 -8 -5 -20 1 -18 10 -19 8 -11 -13 9 -22 7 -23 -16 -19 -19 4 -24 1 -21
-9 3 -8 15 -13 26 -13 12 1 22 0 22 -2 0 -11 -65 -104 -73 -104 -5 0 -4 -6 2
-14 10 -12 8 -17 -11 -27 -13 -7 -24 -12 -25 -11 -2 1 -13 2 -25 1 -22 0 -22
-1 -3 -8 11 -5 25 -6 30 -3 6 2 3 -3 -6 -12 -13 -14 -21 -15 -43 -6 -21 8 -32
7 -44 -2 -14 -12 -14 -11 -1 10 8 12 21 24 29 27 8 3 21 18 28 35 8 16 20 30
28 30 9 0 14 10 14 28 0 15 7 38 17 51 15 22 15 25 -1 36 -15 12 -14 15 11 41
15 16 34 41 42 57 18 34 25 35 17 2z"/>
<path d="M17470 4454 c-19 -7 -56 -13 -82 -13 -56 -1 -78 -9 -78 -27 0 -7 -22
-23 -49 -36 -27 -12 -48 -25 -46 -28 2 -4 -27 -22 -65 -41 -45 -22 -70 -40
-70 -51 0 -9 -12 -27 -27 -39 -16 -12 -20 -19 -11 -16 10 3 20 2 23 -2 2 -5
20 -12 40 -15 45 -9 52 -22 23 -46 -15 -12 -20 -22 -13 -28 19 -19 50 -17 73
6 12 12 33 22 46 22 13 0 33 3 43 6 10 4 3 -5 -16 -20 -39 -29 -30 -33 26 -12
21 7 57 19 81 25 25 7 42 18 42 26 0 9 10 15 23 15 31 0 51 15 44 34 -3 8 3
35 13 58 11 24 20 57 20 74 0 23 6 34 26 43 17 8 24 17 20 27 -3 9 -6 21 -6
29 0 19 -41 23 -80 9z"/>
<path d="M7376 4350 c7 -31 -8 -60 -30 -60 -6 0 -5 4 3 9 7 5 10 14 7 20 -11
17 -23 13 -29 -9 -3 -11 -12 -20 -21 -20 -9 0 -16 -5 -16 -11 0 -7 -11 -8 -30
-4 -39 9 -38 -6 3 -42 18 -16 31 -36 29 -44 -7 -21 39 22 49 46 7 19 8 19 8
-2 1 -13 6 -23 12 -23 5 0 8 4 4 9 -3 5 -1 12 5 16 5 3 15 -3 22 -15 16 -25
25 -25 32 -2 3 10 4 8 3 -7 -2 -19 7 -29 41 -48 l42 -24 0 39 c0 44 -6 53 -26
45 -9 -3 -12 -13 -9 -24 4 -13 1 -19 -9 -19 -24 0 -28 18 -10 45 23 35 12 75
-21 75 -23 0 -53 35 -41 48 3 3 6 0 6 -6 0 -7 7 -12 15 -12 22 0 18 21 -5 27
-11 3 -20 9 -20 14 0 5 -4 9 -10 9 -5 0 -7 -13 -4 -30z"/>
<path d="M11795 4371 c-11 -5 -24 -6 -29 -3 -5 3 -6 0 -2 -6 3 -6 -3 -14 -14
-17 -41 -13 -13 -30 58 -36 39 -3 74 -8 77 -11 3 -3 -24 -8 -59 -11 -66 -6
-101 -21 -111 -45 -4 -11 1 -13 20 -8 18 5 35 0 56 -14 16 -12 29 -18 29 -14
0 3 6 2 13 -3 6 -6 20 -9 29 -8 9 2 19 -3 22 -10 3 -9 13 -11 28 -7 20 5 21 4
8 -9 -8 -8 -24 -19 -35 -23 l-20 -8 20 -8 c12 -5 14 -9 6 -9 -35 -2 3 -14 53
-17 39 -2 60 1 70 11 8 8 21 15 29 15 20 0 33 19 42 58 3 17 13 32 20 32 9 0
12 10 10 32 -5 35 -21 50 -47 44 -10 -2 -18 1 -18 7 0 13 -92 61 -119 63 -9 1
-38 4 -66 7 -27 4 -59 2 -70 -2z"/>
<path d="M12438 4296 c-16 -6 -28 -13 -28 -18 0 -4 -13 -8 -29 -8 -23 0 -30
-5 -33 -25 -3 -14 -1 -25 4 -25 5 0 6 -4 3 -10 -3 -5 -1 -10 6 -10 8 0 8 -4
-1 -15 -10 -12 -9 -15 6 -15 14 0 15 -3 6 -12 -17 -17 -15 -28 4 -28 11 0 14
-6 9 -20 -4 -12 -2 -20 5 -20 6 0 9 -4 5 -9 -5 -9 17 -27 37 -30 4 -1 14 -4
22 -7 8 -3 25 1 38 10 12 9 18 16 13 16 -6 0 -16 10 -24 21 -11 19 -11 21 2
16 9 -3 18 -1 21 6 5 9 7 9 12 0 4 -9 12 -9 32 -1 43 17 88 20 126 10 90 -25
-1 50 -94 78 -39 12 -70 23 -70 27 0 5 51 0 129 -14 32 -5 34 -4 28 17 l-6 22
25 -23 c30 -28 31 -18 2 21 -13 18 -31 30 -44 30 -13 0 -26 5 -29 10 -4 6 -9
8 -13 6 -4 -2 -36 -1 -72 3 -36 3 -77 2 -92 -3z"/>
<path d="M14060 4290 c0 -5 -9 -10 -20 -10 -11 0 -20 -6 -20 -14 0 -8 -8 -16
-17 -18 -11 -2 -17 -13 -18 -32 0 -18 -7 -33 -20 -40 -11 -6 -23 -15 -26 -19
-3 -5 -9 -8 -13 -8 -20 3 -26 0 -21 -9 4 -6 11 -7 17 -4 6 4 28 8 48 8 29 1
36 -3 38 -17 0 -11 -7 -21 -18 -24 -11 -3 -18 -9 -15 -13 10 -16 -8 -40 -28
-38 -12 0 -30 -3 -39 -6 -13 -6 -17 -1 -20 20 -3 25 -5 26 -18 12 -9 -8 -25
-20 -38 -27 -34 -18 -27 -29 23 -33 25 -2 45 0 45 4 0 5 5 8 10 8 6 0 10 -8
10 -17 0 -15 3 -14 15 4 9 12 22 20 29 17 9 -3 17 3 21 15 3 12 14 25 24 31
10 5 22 24 26 42 5 22 9 27 12 16 6 -26 32 -22 44 6 7 14 17 22 25 19 22 -8
16 17 -8 38 -13 10 -27 18 -31 19 -12 0 -37 27 -37 39 0 14 13 14 28 -1 16
-16 28 -2 14 15 -7 8 -9 17 -5 20 3 4 1 7 -5 7 -7 0 -12 -4 -12 -10z"/>
<path d="M11493 4245 c4 -8 1 -17 -5 -21 -7 -4 -8 -3 -4 4 4 7 3 12 -3 12 -5
0 -15 -33 -21 -72 -13 -77 -8 -210 11 -309 l11 -57 20 20 c17 17 18 24 9 45
-7 14 -8 31 -2 41 12 24 3 42 -17 35 -16 -6 -15 -5 1 14 21 24 22 37 2 29 -13
-5 -14 -2 -4 16 6 12 13 68 15 124 1 57 5 108 8 113 3 5 -1 12 -10 15 -12 4
-15 2 -11 -9z"/>
<path d="M13516 4141 c-4 -5 -3 -16 0 -25 4 -11 0 -16 -12 -17 -11 0 -14 -3
-6 -6 6 -2 12 -11 12 -18 0 -18 -25 -26 -39 -12 -6 6 -11 7 -11 1 0 -6 5 -15
11 -21 11 -11 9 -25 -17 -87 -6 -16 -4 -18 14 -14 15 4 25 1 31 -11 5 -9 19
-17 30 -18 12 -1 19 2 16 8 -4 5 -1 9 6 9 7 0 9 -10 7 -25 -5 -23 -2 -25 33
-25 22 0 39 5 39 11 0 6 -9 8 -20 4 -30 -9 -45 4 -23 21 14 11 15 14 3 14 -10
1 -9 4 5 10 17 7 17 9 3 9 -11 1 -18 9 -18 21 0 11 -4 20 -10 20 -5 0 -10 -5
-10 -12 0 -9 -3 -9 -11 -1 -13 13 17 66 32 57 11 -7 32 45 25 63 -7 16 -38 17
-54 1 -9 -9 -13 -7 -18 5 -3 9 -4 24 0 32 6 16 -9 21 -18 6z"/>
<path d="M13173 4113 c-9 -3 -6 -13 9 -34 21 -27 21 -32 9 -101 -7 -40 -13
-84 -14 -98 -1 -58 6 -280 9 -280 2 0 8 10 15 21 8 17 8 23 -1 29 -18 11 -4
41 15 34 8 -3 15 -2 15 4 0 5 20 20 44 33 l45 23 -33 31 c-37 34 -55 82 -31
82 8 0 15 -6 15 -14 0 -7 5 -13 10 -13 6 0 9 -5 8 -11 -2 -6 2 -13 9 -16 11
-4 49 54 45 69 -1 4 14 19 33 34 19 14 35 30 35 35 0 16 -30 9 -41 -10 -14
-22 -53 -17 -45 6 3 8 -1 21 -9 29 -8 9 -15 21 -15 27 1 7 9 2 19 -10 25 -29
55 -31 46 -3 -6 20 9 28 20 10 9 -14 26 -12 24 3 -3 26 2 36 16 31 8 -4 15 -1
15 5 0 6 -6 11 -13 11 -7 0 -17 10 -22 22 -13 29 -31 33 -38 8 -8 -30 -30 -25
-24 6 4 21 1 25 -14 21 -10 -3 -20 0 -22 7 -2 6 -7 9 -10 6 -4 -3 0 -18 8 -34
14 -26 14 -27 -8 -20 -12 4 -23 11 -25 15 -2 5 -10 9 -17 9 -8 0 -19 9 -25 20
-10 19 -31 24 -57 13z"/>
<path d="M9883 3552 c-3 -13 -11 -18 -23 -15 -15 4 -18 1 -13 -18 7 -24 38
-60 46 -53 2 3 7 -2 11 -11 3 -9 2 -14 -3 -11 -8 6 -21 -15 -21 -34 0 -4 12
-11 27 -15 36 -9 53 -33 42 -62 -6 -16 -3 -28 11 -45 l19 -23 -4 37 c-4 33 -3
36 17 30 12 -3 32 -14 45 -26 13 -11 34 -22 48 -23 21 -3 24 0 22 25 -1 17 -7
28 -13 25 -7 -2 -15 15 -20 44 -5 31 -9 40 -12 26 -4 -24 -22 -32 -22 -10 -1
7 -6 5 -14 -5 -7 -10 -18 -18 -23 -18 -19 0 -42 36 -37 56 4 14 -4 30 -26 51
-23 22 -30 38 -28 58 4 33 -21 47 -29 17z"/>
<path d="M11170 3500 c-11 -11 -20 -17 -20 -14 0 4 -6 1 -13 -5 -8 -6 -17 -8
-20 -4 -4 3 -7 1 -7 -5 0 -7 -7 -12 -15 -12 -14 0 -49 -30 -88 -76 -25 -30
-40 -85 -21 -77 9 3 14 -2 14 -13 0 -12 3 -15 8 -8 15 23 52 36 68 23 11 -9
14 -8 14 5 0 15 2 15 26 0 20 -14 25 -14 22 -3 -1 8 2 14 7 14 6 0 9 -6 7 -15
-2 -13 -2 -13 7 0 7 10 6 21 -2 35 -7 11 -12 27 -12 35 2 33 18 91 26 96 11 6
32 44 24 44 -3 0 -14 -9 -25 -20z"/>
<path d="M13283 3322 c-51 -63 -66 -156 -23 -145 18 5 18 7 3 29 -25 38 1 28
59 -24 98 -88 206 -172 220 -172 21 0 -22 129 -48 143 -29 16 -52 50 -46 66 4
10 1 13 -11 8 -11 -4 -17 -1 -17 9 0 8 -7 17 -15 20 -8 4 -15 12 -15 19 0 7 7
18 15 25 23 19 19 25 -27 38 -24 7 -47 15 -53 17 -5 3 -24 -12 -42 -33z"/>
<path d="M10585 3110 c-44 -4 -92 -11 -108 -15 l-27 -7 47 -30 c27 -17 63 -44
80 -61 18 -17 34 -29 36 -26 2 2 14 22 27 44 13 22 37 55 54 73 l30 32 -30 -1
c-16 -1 -65 -5 -109 -9z"/>
<path d="M14861 1799 c-14 -5 -30 -8 -37 -5 -15 6 -46 -27 -42 -45 2 -9 -5
-13 -20 -11 -12 2 -35 -6 -51 -17 -16 -12 -40 -21 -53 -21 -33 0 -61 -22 -56
-46 3 -14 11 -18 33 -17 17 2 43 4 58 5 22 1 44 18 90 70 41 45 68 68 83 68
29 0 54 10 54 21 0 11 -28 11 -59 -2z"/>
</g>
</svg>
